<svg width="28" height="28" viewBox="0 0 28 28" fill="none" xmlns="http://www.w3.org/2000/svg">
<path fill-rule="evenodd" clip-rule="evenodd" d="M5.5998 2.8C4.8572 2.8 4.14501 3.095 3.61991 3.6201C3.0948 4.14521 2.7998 4.8574 2.7998 5.6V21C2.7998 22.1139 3.2423 23.1822 4.02996 23.9699C4.81761 24.7575 5.8859 25.2 6.9998 25.2C8.11371 25.2 9.182 24.7575 9.96965 23.9699C10.7573 23.1822 11.1998 22.1139 11.1998 21V5.6C11.1998 4.8574 10.9048 4.14521 10.3797 3.6201C9.8546 3.095 9.14241 2.8 8.3998 2.8H5.5998ZM6.9998 22.4C7.37111 22.4 7.7272 22.2525 7.98975 21.99C8.2523 21.7274 8.3998 21.3713 8.3998 21C8.3998 20.6287 8.2523 20.2726 7.98975 20.0101C7.7272 19.7475 7.37111 19.6 6.9998 19.6C6.6285 19.6 6.27241 19.7475 6.00986 20.0101C5.7473 20.2726 5.5998 20.6287 5.5998 21C5.5998 21.3713 5.7473 21.7274 6.00986 21.99C6.27241 22.2525 6.6285 22.4 6.9998 22.4ZM13.9998 19.9402L20.8598 13.0802C21.3847 12.5551 21.6796 11.8431 21.6796 11.1006C21.6796 10.3581 21.3847 9.64608 20.8598 9.121L18.8788 7.14C18.3537 6.61508 17.6417 6.3202 16.8992 6.3202C16.1567 6.3202 15.4447 6.61508 14.9196 7.14L13.9998 8.0598V19.9402ZM22.3998 25.2H12.6992L21.0992 16.8H22.3998C23.1424 16.8 23.8546 17.095 24.3797 17.6201C24.9048 18.1452 25.1998 18.8574 25.1998 19.6V22.4C25.1998 23.1426 24.9048 23.8548 24.3797 24.3799C23.8546 24.905 23.1424 25.2 22.3998 25.2Z" fill="#282938"/>
</svg>
