<svg width="28" height="28" viewBox="0 0 28 28" fill="none" xmlns="http://www.w3.org/2000/svg">
<path d="M15.4002 23.8C15.4003 24.0385 15.4614 24.2731 15.5776 24.4814C15.6939 24.6897 15.8614 24.8649 16.0643 24.9903C16.2673 25.1157 16.4989 25.1871 16.7372 25.1978C16.9755 25.2086 17.2126 25.1582 17.426 25.0516L23.026 22.2516C23.2585 22.1354 23.4541 21.9568 23.5908 21.7357C23.7276 21.5147 23.8001 21.2599 23.8002 21V12.9304C23.8001 12.6919 23.739 12.4573 23.6228 12.249C23.5065 12.0407 23.339 11.8655 23.136 11.7401C22.9331 11.6147 22.7015 11.5433 22.4632 11.5326C22.2249 11.5218 21.9878 11.5722 21.7744 11.6788L16.1744 14.4788C15.9419 14.595 15.7463 14.7736 15.6096 14.9947C15.4728 15.2157 15.4003 15.4705 15.4002 15.7304V23.8ZM21.2956 8.7864C21.5278 8.67001 21.7231 8.4913 21.8596 8.27026C21.996 8.04922 22.0683 7.79457 22.0683 7.5348C22.0683 7.27503 21.996 7.02039 21.8596 6.79935C21.7231 6.57831 21.5278 6.3996 21.2956 6.2832L14.626 2.9484C14.4317 2.8513 14.2174 2.80075 14.0002 2.80075C13.783 2.80075 13.5687 2.8513 13.3744 2.9484L6.7048 6.2832C6.47256 6.3996 6.27729 6.57831 6.14083 6.79935C6.00436 7.02039 5.93209 7.27503 5.93209 7.5348C5.93209 7.79457 6.00436 8.04922 6.14083 8.27026C6.27729 8.4913 6.47256 8.67001 6.7048 8.7864L13.3744 12.1212C13.5687 12.2183 13.783 12.2689 14.0002 12.2689C14.2174 12.2689 14.4317 12.2183 14.626 12.1212L21.2956 8.7864ZM6.226 11.6788C6.01261 11.5722 5.77551 11.5218 5.5372 11.5326C5.2989 11.5433 5.06729 11.6147 4.86435 11.7401C4.66141 11.8655 4.49387 12.0407 4.37764 12.249C4.2614 12.4573 4.20032 12.6919 4.2002 12.9304V21C4.20033 21.2599 4.27283 21.5147 4.40957 21.7357C4.54631 21.9568 4.74188 22.1354 4.9744 22.2516L10.5744 25.0516C10.7878 25.1582 11.0249 25.2086 11.2632 25.1978C11.5015 25.1871 11.7331 25.1157 11.936 24.9903C12.139 24.8649 12.3065 24.6897 12.4228 24.4814C12.539 24.2731 12.6001 24.0385 12.6002 23.8V15.7304C12.6001 15.4705 12.5276 15.2157 12.3908 14.9947C12.2541 14.7736 12.0585 14.595 11.826 14.4788L6.226 11.6788Z" fill="black"/>
</svg>
