<svg width="28" height="28" viewBox="0 0 28 28" fill="none" xmlns="http://www.w3.org/2000/svg">
<path d="M11.8 22C11.8 22.7956 11.5471 23.5587 11.0971 24.1213C10.647 24.6839 10.0365 25 9.4 25C8.76348 25 8.15303 24.6839 7.70294 24.1213C7.25286 23.5587 7 22.7956 7 22C7 21.2044 7.25286 20.4413 7.70294 19.8787C8.15303 19.3161 8.76348 19 9.4 19C10.0365 19 10.647 19.3161 11.0971 19.8787C11.5471 20.4413 11.8 21.2044 11.8 22ZM23 22C23 22.7956 22.7471 23.5587 22.2971 24.1213C21.847 24.6839 21.2365 25 20.6 25C19.9635 25 19.353 24.6839 18.9029 24.1213C18.4529 23.5587 18.2 22.7956 18.2 22C18.2 21.2044 18.4529 20.4413 18.9029 19.8787C19.353 19.3161 19.9635 19 20.6 19C21.2365 19 21.847 19.3161 22.2971 19.8787C22.7471 20.4413 23 21.2044 23 22Z" fill="black"/>
<path d="M4.39902 6.00003C4.02772 6.00003 3.67162 6.14753 3.40907 6.41008C3.14652 6.67263 2.99902 7.02873 2.99902 7.40003V21.4C2.99902 21.7713 3.14652 22.1274 3.40907 22.39C3.67162 22.6525 4.02772 22.8 4.39902 22.8H5.86902C6.02968 22.0088 6.45893 21.2975 7.08404 20.7866C7.70915 20.2756 8.49167 19.9965 9.29902 19.9965C10.1064 19.9965 10.8889 20.2756 11.514 20.7866C12.1391 21.2975 12.5684 22.0088 12.729 22.8H14.199C14.5703 22.8 14.9264 22.6525 15.189 22.39C15.4515 22.1274 15.599 21.7713 15.599 21.4V7.40003C15.599 7.02873 15.4515 6.67263 15.189 6.41008C14.9264 6.14753 14.5703 6.00003 14.199 6.00003H4.39902ZM19.799 10.2C19.4277 10.2 19.0716 10.3475 18.8091 10.6101C18.5465 10.8726 18.399 11.2287 18.399 11.6V20.07C18.8495 19.978 19.3136 19.9756 19.765 20.063C20.2163 20.1504 20.6461 20.3259 21.0296 20.5794C21.4131 20.833 21.7429 21.1596 22.0002 21.5406C22.2575 21.9216 22.4372 22.3496 22.529 22.8H23.999C24.3703 22.8 24.7264 22.6525 24.989 22.39C25.2515 22.1274 25.399 21.7713 25.399 21.4L25.1982 14.4001C25.1982 14.0288 25.1982 10.4001 25.1982 10.4001H22.1982C22.1982 10.4001 21.5703 10.2001 21.199 10.2H19.799Z" fill="black"/>
</svg>
