<svg width="28" height="28" viewBox="0 0 28 28" fill="none" xmlns="http://www.w3.org/2000/svg">
<path fill-rule="evenodd" clip-rule="evenodd" d="M13.9998 25.2C16.9702 25.2 19.819 24.02 21.9194 21.9196C24.0198 19.8192 25.1998 16.9704 25.1998 14C25.1998 11.0296 24.0198 8.18081 21.9194 6.08041C19.819 3.98 16.9702 2.8 13.9998 2.8C11.0294 2.8 8.18062 3.98 6.08021 6.08041C3.9798 8.18081 2.7998 11.0296 2.7998 14C2.7998 16.9704 3.9798 19.8192 6.08021 21.9196C8.18062 24.02 11.0294 25.2 13.9998 25.2ZM6.0646 11.2378C6.58441 9.74921 7.51191 8.43655 8.7414 7.4494C9.1166 8.022 9.7634 8.4 10.4998 8.4C11.0568 8.4 11.5909 8.62125 11.9847 9.01508C12.3786 9.40891 12.5998 9.94305 12.5998 10.5V11.2C12.5998 11.9426 12.8948 12.6548 13.4199 13.1799C13.945 13.705 14.6572 14 15.3998 14C16.1424 14 16.8546 13.705 17.3797 13.1799C17.9048 12.6548 18.1998 11.9426 18.1998 11.2C18.1996 10.5734 18.4095 9.96482 18.7961 9.47166C19.1827 8.9785 19.7235 8.62925 20.332 8.4798C21.668 10.0081 22.4029 11.97 22.3998 14C22.3998 14.476 22.3606 14.945 22.2836 15.4H20.9998C20.2572 15.4 19.545 15.695 19.0199 16.2201C18.4948 16.7452 18.1998 17.4574 18.1998 18.2V21.2758C16.9234 22.0143 15.4744 22.4021 13.9998 22.4V19.6C13.9998 18.8574 13.7048 18.1452 13.1797 17.6201C12.6546 17.095 11.9424 16.8 11.1998 16.8C10.4572 16.8 9.74501 16.505 9.21991 15.9799C8.6948 15.4548 8.3998 14.7426 8.3998 14C8.40005 13.3378 8.16559 12.6969 7.73807 12.1912C7.31054 11.6855 6.71762 11.3477 6.0646 11.2378Z" fill="black"/>
</svg>
