<svg width="28" height="28" viewBox="0 0 28 28" fill="none" xmlns="http://www.w3.org/2000/svg">
<path fill-rule="evenodd" clip-rule="evenodd" d="M15.8198 1.46439C16.104 1.55377 16.3523 1.73149 16.5286 1.97169C16.7048 2.21189 16.7999 2.50206 16.7998 2.79999V9.79999H22.3998C22.6559 9.79988 22.9071 9.87001 23.1261 10.0027C23.3451 10.1355 23.5235 10.3257 23.6419 10.5528C23.7603 10.7799 23.8141 11.0351 23.7975 11.2907C23.7809 11.5462 23.6946 11.7923 23.5478 12.0022L13.7478 26.0022C13.5773 26.2465 13.3332 26.4301 13.0511 26.5262C12.769 26.6222 12.4637 26.6258 12.1794 26.5363C11.8952 26.4468 11.6469 26.2689 11.4707 26.0286C11.2946 25.7883 11.1997 25.498 11.1998 25.2V18.2H5.59984C5.34376 18.2001 5.09254 18.13 4.87355 17.9972C4.65455 17.8645 4.47615 17.6742 4.35778 17.4472C4.2394 17.2201 4.18557 16.9649 4.20216 16.7093C4.21874 16.4538 4.3051 16.2077 4.45184 15.9978L14.2518 1.99779C14.4227 1.75389 14.6668 1.57081 14.9488 1.47514C15.2307 1.37947 15.5359 1.37619 15.8198 1.46579V1.46439Z" fill="black"/>
</svg>
