<?xml version="1.0" standalone="no"?>
<!DOCTYPE svg PUBLIC "-//W3C//DTD SVG 20010904//EN"
 "http://www.w3.org/TR/2001/REC-SVG-20010904/DTD/svg10.dtd">
<svg version="1.0" xmlns="http://www.w3.org/2000/svg"
 width="1408.000000pt" height="768.000000pt" viewBox="0 0 1408.000000 768.000000"
 preserveAspectRatio="xMidYMid meet">

<g transform="translate(0.000000,768.000000) scale(0.100000,-0.100000)"
fill="#000000" stroke="none">
<path d="M0 7506 l0 -174 833 -416 c457 -229 822 -414 810 -411 -13 3 -33 8
-45 11 -21 5 -21 4 2 -10 14 -8 25 -20 25 -27 0 -6 16 -20 35 -31 l35 -20 -32
4 c-19 3 -31 0 -30 -6 1 -6 -8 -11 -20 -10 -20 0 -22 -3 -17 -30 3 -17 10 -36
17 -42 7 -6 64 -34 127 -63 273 -126 347 -163 347 -176 0 -9 -10 -13 -26 -11
-14 2 -20 1 -13 -1 7 -3 9 -9 6 -15 -4 -7 -2 -8 4 -4 7 4 22 0 34 -8 21 -15
21 -15 -13 -12 -19 2 -50 7 -69 10 l-35 6 35 -16 c45 -21 47 -23 30 -35 -11
-8 -12 -12 -2 -16 6 -2 12 -11 12 -19 0 -9 -5 -12 -12 -8 -7 5 -8 3 -4 -5 5
-7 0 -19 -10 -27 -18 -15 -18 -15 1 -9 11 3 16 3 12 -1 -4 -4 0 -18 8 -31 9
-13 11 -23 5 -23 -6 0 -10 -6 -9 -12 3 -27 -2 -38 -17 -38 -14 0 -14 -2 1 -16
9 -10 13 -20 8 -23 -4 -3 -9 -17 -11 -31 -4 -24 -3 -25 12 -5 15 19 16 19 9 1
-4 -13 -3 -17 5 -12 7 4 12 2 12 -4 0 -6 -12 -15 -26 -20 -27 -11 -30 -44 -4
-46 37 -2 42 -5 37 -18 -4 -9 -1 -13 7 -10 16 6 9 -68 -8 -78 -8 -6 -7 -8 2
-8 8 0 12 -17 12 -51 0 -28 4 -48 9 -45 5 4 12 0 14 -6 4 -10 6 -10 6 0 2 20
21 13 21 -8 0 -11 -6 -20 -12 -20 -10 0 -9 -3 1 -9 9 -6 11 -18 6 -39 -4 -19
-2 -33 6 -38 8 -5 10 -3 4 7 -7 11 -5 11 10 -1 18 -14 18 -15 -3 -18 -11 -2
-23 -10 -26 -19 -6 -14 -4 -14 10 -2 16 13 16 12 6 -8 -8 -14 -8 -23 -2 -25 9
-3 14 -39 9 -78 -1 -8 2 -28 6 -44 7 -24 5 -28 -8 -23 -17 6 -41 -15 -30 -27
10 -10 -37 9 -87 34 -41 21 -50 35 -27 43 21 8 3 16 -42 19 -31 2 -45 -1 -49
-11 -3 -9 0 -11 7 -6 19 11 61 -3 55 -19 -8 -20 -80 5 -78 27 1 8 -4 13 -11
11 -7 -3 -26 16 -43 43 -18 26 -36 53 -42 60 -5 7 -10 15 -10 17 0 8 -88 125
-118 158 -14 15 -23 31 -19 34 5 6 61 -5 120 -22 9 -3 17 -1 17 5 0 10 -129
43 -141 35 -4 -2 -10 0 -14 6 -3 5 -13 10 -21 10 -26 0 -17 -63 16 -108 26
-36 41 -92 25 -92 -3 0 -52 30 -108 67 -111 73 -157 97 -157 83 0 -6 7 -10 15
-10 8 0 19 -9 25 -20 7 -14 7 -20 0 -20 -17 0 -11 -30 8 -36 39 -13 82 -39 82
-51 0 -7 -11 -15 -24 -19 -14 -3 -27 -12 -30 -20 -3 -8 -12 -14 -20 -14 -25 0
-10 -129 17 -153 17 -15 21 -33 25 -103 l5 -85 -39 5 c-22 3 -60 8 -86 11
l-48 6 0 105 0 104 35 38 c19 21 39 51 45 66 5 15 14 25 19 22 4 -3 6 6 3 20
-6 32 -58 56 -110 52 -34 -3 -42 -10 -95 -88 -53 -77 -61 -85 -88 -82 -33 2
-40 -17 -8 -25 14 -4 18 -10 13 -22 -4 -9 -17 -49 -28 -88 -16 -55 -25 -73
-38 -73 -11 0 -18 8 -18 20 0 11 -4 20 -10 20 -5 0 -10 -7 -10 -16 0 -14 -10
-15 -65 -11 -37 3 -65 1 -65 -4 0 -5 8 -10 18 -11 9 0 22 -2 27 -3 6 -2 25 -3
43 -4 25 -1 35 -6 39 -21 6 -23 23 -27 23 -5 0 28 31 15 45 -19 8 -18 30 -50
50 -70 19 -20 35 -40 35 -44 0 -5 14 -18 30 -30 17 -13 30 -29 30 -36 0 -7 9
-21 20 -31 11 -10 20 -14 20 -9 0 5 7 -4 15 -20 19 -35 27 -236 10 -236 -57 0
-128 141 -171 340 -10 46 -20 78 -22 72 -6 -18 25 -150 58 -249 31 -93 66
-145 116 -175 28 -16 34 -26 34 -54 l0 -34 -107 0 c-62 1 -119 6 -134 13 -34
15 -67 55 -111 137 -48 87 -67 147 -83 260 -7 52 -14 84 -15 70 -1 -14 -2 -28
-1 -32 2 -15 -18 -8 -29 10 -10 15 -10 15 -6 -3 3 -11 8 -32 12 -47 3 -16 10
-25 15 -23 4 3 5 13 2 22 -4 11 -3 14 5 9 7 -4 12 -25 12 -46 0 -78 83 -263
155 -343 29 -32 94 -47 213 -47 l74 0 -3 -32 c-4 -59 1 -108 10 -108 5 0 8 31
6 69 l-4 69 37 6 c20 3 51 6 67 6 27 0 31 -4 30 -27 0 -37 20 -39 38 -4 8 17
12 30 9 30 -26 -4 -28 4 -7 25 13 13 38 55 56 95 27 57 38 71 56 71 13 0 23 5
23 10 0 6 -9 10 -19 10 -24 0 -17 40 8 41 10 0 11 2 4 6 -16 6 -17 53 -2 53 6
0 9 6 7 12 -5 14 15 38 31 38 6 0 11 15 11 34 0 19 2 41 5 49 4 8 0 14 -10 14
-14 0 -21 -28 -16 -65 2 -9 -5 -7 -17 5 -10 10 -17 23 -14 28 3 6 2 7 -3 3 -4
-4 -9 -33 -11 -65 -2 -32 -9 -80 -15 -108 -12 -50 -73 -195 -83 -195 -3 0 -15
20 -26 44 -11 25 -24 47 -29 50 -5 3 -12 36 -16 73 -5 51 -2 77 9 106 20 45
46 167 46 209 l0 31 52 -7 c61 -8 68 -12 68 -33 0 -9 3 -13 7 -10 3 4 13 1 21
-6 12 -9 16 -9 19 0 3 7 20 15 39 19 20 4 32 10 27 14 -9 8 -93 24 -180 35
l-53 7 0 99 c0 54 2 99 4 99 2 0 21 -26 42 -57 44 -64 74 -98 74 -83 0 14 37
12 43 -2 3 -7 6 -3 6 9 1 12 -3 25 -9 28 -5 3 -10 13 -10 20 0 20 25 9 80 -32
25 -19 57 -37 71 -40 25 -5 25 -7 18 -57 -4 -29 -5 -68 -4 -87 2 -19 5 -74 6
-124 1 -49 3 -82 6 -73 3 12 12 16 31 13 15 -2 48 -7 75 -10 l47 -6 0 -48 c0
-44 -3 -49 -25 -53 -13 -3 -22 -1 -19 3 3 5 11 9 18 9 8 0 14 11 14 25 -1 25
1 25 -115 38 l-32 3 -3 -80 c-2 -45 -2 -181 0 -303 l3 -223 32 0 c39 0 77 10
77 20 0 4 -24 5 -52 2 -29 -2 -50 -1 -46 3 4 4 20 9 35 10 16 1 34 3 41 3 15
2 17 92 2 92 -5 0 -10 4 -10 10 0 5 7 7 15 4 12 -5 15 1 14 27 -1 19 -3 27 -6
18 -4 -17 -32 -29 -68 -29 -19 0 -20 8 -23 129 l-4 128 54 -4 c29 -2 63 -4 76
-4 12 1 22 -4 22 -10 0 -14 42 -7 48 9 2 8 -10 12 -40 13 -23 1 -46 1 -50 0
-5 0 -8 17 -8 39 0 42 14 54 23 20 6 -25 67 -29 67 -5 0 8 -4 15 -10 15 -5 0
-10 35 -12 78 l-3 77 -32 3 c-28 3 -33 7 -33 29 0 25 1 25 56 18 40 -5 54 -3
50 4 -4 6 -29 11 -57 11 l-49 0 0 50 c0 55 4 58 40 33 47 -32 145 -117 129
-111 -12 5 -18 0 -22 -18 -2 -14 1 -24 7 -24 6 0 2 -7 -8 -15 -17 -13 -18 -15
-3 -15 11 0 17 -8 17 -23 0 -13 5 -28 12 -35 9 -9 9 -12 -1 -12 -7 0 -9 -5 -6
-11 5 -7 11 -6 18 3 7 7 11 11 10 9 -2 -2 5 -10 15 -18 11 -10 12 -12 2 -8 -9
4 -8 1 3 -8 15 -13 15 -15 2 -20 -12 -5 -13 -12 -5 -32 6 -15 6 -24 1 -20 -6
3 -8 -7 -7 -22 2 -16 0 -32 -4 -38 -5 -5 -5 -30 0 -55 5 -25 6 -57 3 -72 -3
-16 0 -35 7 -43 10 -12 10 -18 -1 -31 -18 -22 -23 -84 -7 -84 8 0 7 -4 -3 -10
-11 -7 -16 -21 -14 -42 2 -18 -1 -38 -6 -44 -4 -5 -7 -38 -5 -72 2 -40 -1 -60
-8 -59 -6 1 -11 -6 -11 -15 0 -9 -4 -20 -8 -24 -10 -10 -9 -26 2 -20 5 3 11
-3 14 -15 4 -15 2 -18 -7 -10 -10 8 -18 5 -32 -10 -10 -11 -14 -20 -9 -19 30
6 36 0 23 -22 -7 -13 -12 -26 -13 -30 0 -15 -15 -20 -15 -5 0 15 -3 14 -20 -3
-21 -21 -27 -35 -11 -25 5 3 12 1 16 -5 3 -6 -1 -13 -9 -16 -9 -3 -14 -10 -11
-14 3 -4 -2 -13 -10 -20 -12 -10 -10 -16 15 -40 17 -16 30 -33 30 -37 0 -4 -5
-2 -12 5 -18 18 -28 15 -28 -9 0 -11 4 -18 9 -14 5 3 13 0 17 -6 4 -8 3 -9 -4
-5 -7 4 -12 3 -12 -3 0 -5 -9 -8 -19 -6 -15 3 -18 -1 -14 -12 5 -13 3 -13 -15
-4 -12 7 -22 15 -22 20 0 4 -7 8 -16 8 -11 0 -14 -7 -10 -23 4 -13 1 -24 -7
-27 -23 -8 -42 8 -45 38 -2 17 -10 33 -18 38 -7 4 -11 14 -8 21 3 8 1 17 -5
21 -19 11 -12 28 9 22 37 -10 -3 44 -43 58 -36 12 -37 12 -37 -11 0 -13 -6
-24 -12 -24 -9 0 -8 -4 2 -10 10 -6 11 -10 3 -10 -7 0 -24 -26 -39 -57 -14
-32 -25 -58 -23 -58 1 0 -4 -11 -11 -25 -8 -14 -13 -29 -12 -34 2 -5 -4 -3
-13 4 -10 8 -19 10 -23 4 -9 -12 -42 -14 -42 -3 0 5 -5 9 -11 9 -6 0 -8 -9 -4
-21 5 -15 4 -19 -4 -15 -6 4 -11 2 -11 -3 0 -6 8 -11 18 -12 15 0 15 -1 -2 -8
-15 -6 -16 -10 -7 -16 11 -6 11 -9 0 -17 -10 -7 -8 -8 6 -3 11 4 36 9 55 11
39 3 167 30 190 40 19 8 86 17 80 10 -5 -4 -277 -72 -945 -236 -232 -57 -841
-201 -922 -218 l-23 -4 0 -1494 0 -1494 4581 0 4581 0 -33 43 c-19 23 -36 44
-39 47 -44 42 -154 190 -141 190 4 0 8 7 8 15 0 17 -13 20 -22 5 -8 -13 -35
-1 -35 17 0 12 3 13 14 4 11 -9 15 -7 21 11 4 13 7 30 6 38 0 9 2 10 5 3 3 -7
20 -10 44 -7 31 4 40 1 44 -14 4 -11 4 -28 0 -38 -5 -18 -5 -18 9 -2 15 19 29
14 20 -8 -4 -11 5 -14 35 -14 23 0 44 -5 48 -12 4 -6 3 -8 -4 -4 -6 3 -13 2
-16 -2 -6 -10 34 -10 51 1 8 5 10 -1 8 -18 -1 -14 4 -29 11 -33 7 -4 15 -19
18 -32 2 -14 5 -27 6 -30 2 -3 2 -8 1 -12 0 -5 3 -8 9 -8 5 0 11 5 11 10 1 6
2 16 3 23 1 6 -4 20 -12 30 -13 15 -13 17 1 17 19 0 37 -29 30 -47 -3 -7 0
-13 6 -13 6 0 11 5 11 11 0 5 5 7 10 4 6 -4 8 -9 6 -13 -2 -4 11 -7 29 -8 20
0 32 4 31 12 -1 7 4 12 9 11 6 -1 9 -5 7 -9 -1 -5 5 -8 13 -8 9 0 12 -6 9 -15
-4 -8 -10 -12 -15 -9 -5 3 -9 1 -9 -4 0 -10 73 -7 91 3 8 6 8 2 0 -13 -9 -17
-8 -19 8 -15 11 3 21 -2 24 -11 4 -9 3 -16 -2 -16 -4 0 -8 -7 -8 -14 0 -11 5
-12 18 -5 19 9 17 29 -5 59 -10 13 -9 13 7 1 9 -7 17 -20 17 -28 0 -8 5 -11
13 -7 6 4 9 4 5 0 -7 -8 -5 -11 37 -58 l24 -28 2240 0 2241 0 0 3840 0 3840
-3492 -2 c-1921 -1 -3474 -3 -3450 -5 31 -3 42 -8 42 -21 0 -34 -142 -447
-158 -460 -13 -10 -78 -12 -289 -10 -149 2 -274 5 -277 8 -6 7 41 467 49 481
4 5 -1252 9 -3249 9 l-3256 0 0 -174z m9977 148 l102 -7 -162 -130 c-299 -239
-418 -329 -450 -338 -18 -5 -151 -9 -297 -9 l-264 0 44 46 c129 132 466 440
489 446 28 8 374 2 538 -8z m3112 -25 c-8 -5 -31 -9 -51 -9 -25 0 -41 -6 -50
-19 -15 -22 -735 -352 -862 -395 -100 -35 -204 -46 -436 -46 l-185 0 35 22
c19 12 229 120 465 240 l430 218 334 -1 c199 -1 328 -5 320 -10z m-11314
-1187 c-5 -5 -95 39 -101 50 -3 5 19 -4 50 -19 30 -15 54 -29 51 -31z m-37
-19 c-10 -2 -18 -9 -18 -15 0 -6 -3 -9 -6 -5 -10 10 6 27 24 26 15 -1 15 -2 0
-6z m7216 -69 c12 -3 57 -6 99 -7 42 -1 77 -5 77 -9 0 -5 3 -7 8 -6 14 3 62
-22 62 -32 0 -5 15 -10 33 -10 19 0 37 -3 41 -7 8 -8 13 -9 42 -12 9 0 12 -6
8 -13 -5 -8 -2 -9 10 -5 14 6 16 3 11 -13 -5 -14 -2 -20 10 -20 8 0 18 -7 21
-15 4 -8 12 -15 19 -15 8 0 22 -11 33 -25 11 -14 24 -25 29 -24 19 3 31 -2 29
-13 0 -7 1 -13 4 -13 12 0 37 -30 29 -35 -4 -3 -4 -12 1 -20 7 -11 10 -12 10
-2 0 7 5 10 10 7 6 -3 10 -13 10 -22 0 -8 14 -28 31 -44 17 -16 28 -33 24 -39
-3 -5 5 -14 19 -20 14 -5 26 -12 26 -15 0 -4 -4 -3 -10 0 -5 3 -10 2 -10 -3 0
-14 26 -33 41 -30 7 2 14 -3 15 -9 1 -7 3 -16 4 -20 1 -5 1 -19 0 -31 -1 -21
2 -23 22 -17 23 8 23 7 4 -14 -19 -21 -19 -21 13 -27 30 -6 54 -23 28 -20 -6
0 -13 -3 -14 -9 -1 -5 9 -8 24 -7 17 3 23 0 18 -8 -4 -6 -4 -18 -1 -26 4 -12
10 -13 26 -4 23 12 27 1 10 -31 -9 -16 -7 -19 11 -19 14 0 19 5 16 15 -4 8 -1
17 5 21 7 5 9 -2 6 -20 -4 -18 -1 -26 8 -26 8 0 14 -5 14 -11 0 -5 -4 -8 -9
-4 -5 3 -13 1 -16 -5 -4 -6 9 -17 28 -25 19 -8 37 -21 41 -30 3 -9 9 -14 13
-12 12 6 40 -28 37 -45 -1 -8 7 -20 17 -26 11 -7 19 -9 19 -4 0 4 27 8 59 7
33 0 57 -2 55 -4 -2 -2 1 -10 7 -17 8 -9 18 -10 35 -3 16 6 23 5 19 -1 -3 -5
6 -12 20 -16 22 -5 24 -9 13 -22 -11 -13 -11 -14 1 -7 11 6 13 4 7 -10 -5 -15
-4 -16 9 -5 8 7 22 10 30 6 9 -3 14 -2 11 3 -9 14 17 19 44 9 l25 -9 -22 -12
c-22 -12 -22 -13 -3 -25 25 -15 33 -15 24 0 -5 8 -2 9 9 5 12 -4 17 -1 18 11
0 12 2 13 6 3 4 -9 8 -10 12 -3 4 7 20 8 46 2 34 -7 37 -7 23 4 -10 7 -18 18
-18 25 0 6 -5 11 -11 11 -5 0 -7 4 -4 10 5 7 49 8 85 1 3 -1 -2 -6 -10 -11 -9
-6 -10 -10 -3 -10 6 0 14 4 17 9 4 5 24 12 47 16 34 6 40 10 36 26 -3 10 -1
17 4 13 5 -3 9 -1 9 5 0 5 -6 12 -12 14 -7 3 -8 6 -2 6 5 1 19 -7 30 -18 20
-18 21 -18 34 3 14 21 16 26 19 46 0 6 10 10 21 10 13 0 18 -5 14 -15 -4 -8
-1 -15 5 -15 6 0 11 8 11 18 0 19 36 46 49 37 5 -2 14 2 21 10 13 15 5 20 -27
16 -18 -3 -16 16 2 23 8 3 15 15 15 26 0 11 5 20 10 20 6 0 10 -12 10 -26 0
-14 -4 -23 -10 -19 -5 3 -10 1 -10 -4 0 -6 9 -11 19 -11 14 0 18 5 14 20 -3
12 0 20 6 20 7 0 9 5 6 11 -4 6 2 13 14 16 23 6 28 19 9 26 -8 3 -6 6 5 6 9 1
17 -4 17 -9 0 -6 6 -9 13 -8 6 2 11 -3 9 -9 -1 -7 4 -13 12 -13 8 0 17 -8 20
-18 4 -10 14 -19 24 -18 56 0 71 -4 66 -19 -4 -8 -1 -15 6 -15 7 0 9 -8 5 -20
-4 -12 -2 -20 5 -20 6 0 9 -14 7 -35 -4 -35 -2 -37 38 -39 16 -1 20 -7 17 -33
-1 -19 3 -33 9 -33 6 0 9 7 5 15 -6 17 9 21 19 5 13 -22 15 -59 2 -67 -7 -4
-18 -20 -24 -35 -10 -23 -10 -28 1 -28 8 0 13 8 12 18 -1 11 6 17 19 17 13 0
20 -7 20 -20 1 -11 5 -26 9 -34 6 -9 5 -12 -2 -7 -6 3 -17 0 -25 -8 -8 -8 -17
-13 -20 -10 -2 3 -7 -5 -10 -17 -5 -19 -4 -19 11 -6 9 8 25 14 36 14 18 0 18
-1 0 -14 -10 -7 -12 -13 -6 -13 7 0 12 -5 12 -11 0 -7 -11 -9 -30 -5 -21 4
-32 1 -36 -8 -3 -8 -15 -17 -27 -20 -26 -6 -19 -15 19 -22 35 -6 44 -14 17
-14 -21 0 -25 -14 -11 -36 5 -7 -1 -9 -18 -6 -16 3 -21 7 -14 12 13 8 -10 21
-42 25 -21 2 -23 -6 -6 -23 9 -9 9 -12 -3 -12 -12 0 -12 -2 1 -10 13 -8 13
-11 1 -19 -7 -5 -11 -13 -7 -19 3 -5 -1 -13 -10 -16 -9 -3 -12 -2 -9 5 4 6 -1
17 -11 24 -18 13 -18 14 -1 15 24 0 22 20 -3 20 -13 0 -20 -7 -20 -20 0 -19
-4 -20 -52 -15 -29 3 -55 10 -56 16 -2 5 -8 7 -13 3 -5 -3 -9 0 -9 6 0 7 -6 5
-15 -4 -19 -19 -19 -24 3 -22 9 0 16 -5 14 -11 -1 -7 2 -13 8 -13 5 0 10 4 10
9 0 8 59 6 67 -3 2 -2 -8 -11 -22 -20 -22 -14 -25 -15 -25 -1 0 8 -4 15 -10
15 -5 0 -10 -9 -10 -20 0 -11 -4 -20 -10 -20 -5 0 -7 7 -4 15 4 10 0 15 -16
15 -11 0 -19 4 -16 8 3 5 -1 9 -9 9 -8 0 -15 -6 -15 -13 0 -7 -8 -15 -17 -18
-10 -2 -3 -3 15 -1 19 2 30 -1 26 -6 -3 -6 -1 -16 5 -23 9 -11 6 -12 -14 -8
-14 2 -25 9 -25 15 0 5 -8 3 -18 -6 -12 -11 -22 -13 -32 -7 -8 5 -11 10 -6 10
5 0 3 6 -3 14 -10 12 -17 9 -44 -18 -18 -18 -38 -42 -45 -52 -7 -10 -10 -13
-6 -5 5 9 3 12 -4 7 -7 -4 -12 -15 -13 -24 0 -14 -2 -13 -9 3 l-9 20 0 -20
c-1 -11 -5 -16 -9 -10 -4 6 -14 15 -22 22 -12 9 -15 7 -16 -12 -1 -17 2 -22
14 -18 10 4 13 2 8 -6 -4 -6 -16 -9 -27 -6 -10 4 -29 3 -41 -1 -20 -6 -21 -7
-4 -19 27 -20 4 -87 -25 -70 -6 4 -13 -2 -16 -14 -5 -18 -7 -19 -20 -5 -9 8
-18 12 -22 8 -3 -4 -1 -9 6 -11 7 -2 9 -11 6 -19 -3 -8 0 -14 6 -14 6 0 11 -4
11 -9 0 -5 -6 -9 -12 -8 -40 1 -50 -3 -39 -17 9 -10 9 -20 0 -39 -10 -22 -17
-25 -60 -24 -28 0 -52 4 -55 9 -9 14 -24 -2 -24 -27 0 -13 6 -26 13 -28 7 -3
5 -6 -5 -6 -10 -1 -18 5 -18 12 0 8 -14 13 -36 14 -31 1 -33 0 -17 -12 9 -7
23 -10 31 -7 12 4 12 1 3 -16 -7 -12 -21 -22 -32 -22 -11 0 -17 5 -14 10 3 6
2 10 -3 10 -5 0 -12 -10 -14 -22 -4 -20 0 -23 34 -25 27 -1 38 2 38 13 0 11 4
12 19 5 10 -6 20 -8 23 -6 3 3 5 -2 5 -10 0 -10 -7 -13 -23 -9 -12 3 -25 1
-29 -5 -3 -6 -10 -9 -15 -6 -5 3 -7 -8 -5 -25 5 -40 -3 -60 -21 -53 -10 4 -12
0 -8 -13 9 -24 0 -16 -16 15 -8 15 -8 21 -1 17 7 -5 11 2 11 16 0 18 -2 20
-10 8 -5 -8 -10 -12 -10 -8 0 3 -3 14 -7 24 -5 14 -3 16 11 11 10 -4 15 -3 11
3 -3 6 -12 10 -20 10 -8 0 -19 17 -24 38 -16 59 -66 125 -113 152 -31 18 -65
26 -123 31 -76 6 -83 5 -137 -23 -52 -28 -60 -36 -78 -85 -11 -29 -20 -63 -20
-74 0 -11 -4 -17 -10 -14 -5 3 -10 -1 -10 -9 0 -9 5 -16 11 -16 6 0 1 -9 -12
-21 -16 -14 -18 -19 -7 -15 10 3 19 -2 23 -12 6 -14 11 -11 36 18 16 19 29 29
29 23 0 -6 -15 -24 -32 -40 -18 -16 -38 -38 -44 -49 -14 -26 -18 -98 -4 -89 5
3 10 1 10 -4 0 -6 -5 -11 -12 -11 -7 0 -6 -5 4 -12 17 -14 31 -61 21 -71 -3
-4 -16 6 -28 22 -15 22 -25 27 -36 20 -12 -7 -11 -9 3 -9 9 0 20 -6 24 -12 4
-7 4 -10 -1 -6 -4 4 -13 4 -19 -1 -7 -5 -25 -1 -46 10 -20 11 -28 19 -17 19 9
0 17 6 17 13 0 9 3 8 9 -2 15 -24 51 5 51 41 0 17 -3 28 -7 25 -3 -4 -13 -2
-20 5 -11 9 -16 9 -22 0 -11 -19 -48 -22 -62 -6 -18 21 -27 17 -21 -11 3 -19
0 -25 -12 -25 -11 0 -14 -5 -10 -12 5 -8 2 -9 -12 -4 -10 4 -41 10 -67 13 -53
6 -68 18 -37 28 11 4 18 10 15 15 -3 5 6 12 20 16 33 8 26 30 -8 26 -19 -2
-27 1 -27 11 0 9 -7 14 -15 13 -15 -2 -55 -44 -55 -58 0 -4 -5 -8 -12 -8 -6 0
-9 3 -5 6 10 10 -16 30 -40 31 -13 1 -25 -2 -28 -8 -4 -5 4 -9 17 -10 23 -1
23 -1 -2 -9 -38 -12 -50 -11 -50 4 0 21 -17 28 -24 10 -3 -8 -2 -12 4 -9 6 3
10 1 10 -4 0 -6 -11 -11 -25 -11 -13 0 -28 -7 -33 -16 -10 -18 -32 -11 -32 9
0 7 4 6 10 -3 6 -10 8 -4 7 22 -2 27 -5 34 -14 26 -7 -5 -12 -13 -11 -16 4
-34 -26 -49 -50 -25 -15 15 -17 14 -22 -8 -10 -39 -20 40 -20 154 0 53 -3 97
-8 97 -4 0 -8 -62 -8 -138 0 -76 -4 -144 -8 -150 -4 -7 -18 -12 -31 -12 -15 0
-26 -7 -30 -20 -9 -28 -35 -23 -48 10 -4 11 -7 9 -13 -8 -4 -16 -12 -22 -24
-19 -12 3 -22 -4 -29 -20 -10 -21 -16 -24 -41 -19 -18 3 -30 1 -30 -5 0 -6 5
-7 10 -4 6 3 10 1 10 -4 0 -21 -56 -11 -80 14 -13 14 -32 25 -42 25 -11 0 -17
4 -14 9 3 5 0 9 -7 8 -40 -1 -61 4 -49 12 23 14 -200 4 -245 -12 -37 -13 -45
-13 -63 0 -16 11 -25 12 -33 4 -14 -14 -40 -15 -32 -1 3 6 1 10 -4 10 -6 0
-11 -4 -11 -10 0 -5 -9 -10 -21 -10 -11 0 -17 5 -14 10 10 16 -51 12 -65 -5
-7 -8 -22 -15 -33 -15 -24 0 -57 -27 -57 -47 0 -22 -29 -73 -42 -73 -6 0 -16
-7 -22 -16 -7 -8 -29 -16 -51 -17 -22 -1 -46 -6 -52 -10 -7 -4 -32 -7 -56 -5
-37 3 -43 6 -39 21 4 14 12 18 33 15 17 -3 30 1 33 8 3 9 -13 17 -50 25 -29 7
-54 17 -54 23 0 5 -6 2 -12 -7 -15 -20 -58 -28 -75 -15 -7 6 -19 8 -28 5 -8
-4 -17 -2 -20 3 -4 6 -11 10 -16 10 -6 0 -8 -4 -5 -9 3 -4 -9 -6 -27 -4 -17 3
-38 5 -46 6 -8 0 -16 8 -18 18 -6 20 -61 31 -83 17 -12 -8 -12 -9 3 -4 9 3 17
1 17 -4 0 -5 9 -12 21 -15 14 -5 18 -10 11 -17 -6 -6 -17 -6 -30 1 -26 14 -45
14 -37 1 4 -6 11 -8 16 -5 5 4 9 1 9 -4 0 -15 -16 -14 -41 2 -17 10 -23 10
-26 0 -3 -7 -12 -13 -21 -13 -14 0 -15 -2 -2 -10 9 -5 19 -5 27 2 7 6 13 6 13
2 0 -17 -36 -32 -72 -28 -29 2 -39 -2 -52 -21 -9 -13 -16 -37 -17 -52 0 -20
-7 -7 -23 41 l-24 70 22 18 c11 9 27 17 34 18 6 0 12 8 12 18 0 14 -9 19 -37
20 -46 3 -48 6 -28 26 24 23 5 20 -20 -4 -20 -19 -55 -19 -55 0 0 4 -20 14
-45 21 -25 7 -45 16 -45 20 0 4 -8 6 -17 4 -63 -13 -93 -13 -87 -2 3 7 0 5 -8
-3 -7 -9 -22 -15 -33 -13 -11 1 -14 0 -7 -3 8 -4 1 -12 -20 -24 -18 -10 -36
-16 -41 -13 -4 2 -6 -1 -5 -8 2 -6 -17 -27 -41 -46 -38 -29 -46 -32 -53 -19
-7 13 -13 14 -30 5 -15 -8 -19 -8 -14 0 4 6 2 11 -3 11 -6 0 -11 7 -11 15 0 8
-2 15 -4 15 -2 0 -13 3 -23 7 -17 7 -17 6 0 -11 17 -18 15 -36 -5 -36 -5 0 -7
7 -4 16 3 8 2 12 -4 9 -6 -3 -10 -1 -10 6 0 11 -70 6 -106 -8 -8 -3 -14 0 -14
7 0 6 5 8 12 4 7 -4 8 -3 4 4 -4 7 -18 12 -31 12 -13 0 -26 4 -29 8 -3 5 -23
8 -46 8 -25 -1 -40 3 -40 11 0 7 7 10 17 6 11 -4 14 -3 9 5 -4 7 -1 13 8 13 9
1 21 3 26 4 6 1 15 3 22 4 9 1 9 4 0 13 -8 8 -18 8 -34 2 -13 -6 -29 -9 -35
-8 -7 1 -17 2 -22 3 -5 0 -12 12 -15 26 -4 15 -11 23 -17 19 -8 -4 -7 -9 2
-15 10 -6 10 -9 2 -9 -7 0 -10 -9 -8 -21 3 -13 0 -19 -8 -16 -7 2 -12 17 -11
33 1 27 -10 44 -30 44 -5 0 -2 -8 5 -17 13 -16 12 -17 -2 -5 -10 7 -15 21 -12
32 3 13 0 20 -8 21 -8 0 -4 4 9 9 33 14 27 28 -11 23 -22 -3 -38 1 -46 11 -11
13 -9 15 15 13 15 -1 29 4 31 11 3 8 -1 12 -12 10 -10 -2 -20 3 -22 10 -3 7 5
12 19 13 17 1 18 3 6 6 -10 2 -18 12 -18 21 -1 15 -2 15 -11 0 -5 -10 -19 -18
-29 -18 -27 0 -26 36 1 50 19 11 20 12 3 24 -9 7 -14 17 -11 22 5 8 -13 9 -55
5 -5 -1 -8 -6 -8 -12 0 -8 4 -8 13 0 10 8 14 7 14 -4 0 -8 -3 -13 -5 -10 -3 3
-10 1 -16 -5 -15 -12 -19 30 -6 64 7 19 5 28 -7 38 -14 11 -17 11 -21 0 -5
-15 -51 111 -52 141 0 9 -8 17 -17 17 -15 0 -16 2 -3 9 8 6 19 7 25 4 5 -3 4
0 -2 8 -7 7 -13 26 -13 42 0 16 -4 26 -10 22 -5 -3 -10 3 -10 14 0 13 -5 19
-14 15 -9 -4 -13 2 -12 18 0 14 -4 22 -11 20 -7 -1 -13 2 -13 8 0 12 10 13 29
1 7 -5 11 -13 7 -19 -7 -12 20 -10 31 3 4 4 2 5 -6 0 -10 -6 -12 -2 -6 14 3
11 2 21 -3 21 -6 0 -13 12 -16 26 -5 19 -10 24 -18 16 -8 -8 -15 -7 -24 3 -19
19 -17 27 4 17 9 -4 23 -7 30 -6 6 1 17 2 24 3 19 2 0 14 -24 15 -18 1 -22 7
-21 24 3 20 0 21 -17 12 -16 -9 -20 -8 -20 5 0 8 5 15 10 15 6 0 9 3 9 8 -1 4
-1 14 0 22 1 13 2 13 11 0 5 -8 12 -11 16 -7 5 4 -2 17 -14 29 -19 20 -20 23
-5 34 10 7 18 28 19 52 2 34 -1 41 -18 44 -17 3 -18 5 -4 23 10 13 18 16 23 9
5 -7 19 0 38 19 24 24 25 27 8 18 -15 -8 -23 -8 -23 -1 0 5 4 10 9 10 13 0 20
49 7 53 -6 2 0 12 12 22 22 19 32 52 12 40 -5 -3 -10 -4 -10 0 0 3 10 10 23
15 17 7 18 9 4 9 -14 1 -16 5 -8 20 6 10 7 21 4 25 -3 3 1 6 11 6 9 0 14 5 11
10 -3 6 -2 10 3 10 19 0 22 54 4 68 -15 12 -14 13 8 10 14 -2 25 2 25 7 0 6 4
16 9 24 7 11 5 13 -8 8 -14 -6 -15 -3 -6 14 6 11 18 23 25 26 8 3 13 15 11 26
-2 12 6 36 18 52 11 17 21 32 21 35 0 3 3 4 7 3 4 -2 5 4 2 12 -4 10 0 15 12
16 11 0 14 3 7 6 -22 8 -14 31 16 44 24 11 28 17 20 31 -7 12 -6 18 1 18 6 0
9 4 5 9 -3 5 4 12 15 16 11 3 20 10 20 15 0 5 9 12 20 15 16 5 18 10 10 26 -6
11 -7 19 -2 19 6 0 12 9 15 21 4 15 12 20 29 17 13 -2 23 2 24 10 1 6 2 16 3
20 1 10 61 45 61 36 0 -3 7 -1 15 6 13 11 13 15 3 21 -10 7 -10 9 0 10 6 1 17
2 23 3 5 0 18 12 29 26 16 21 20 22 35 10 14 -12 17 -10 22 8 3 12 9 22 14 22
15 0 23 2 46 11 36 14 190 21 198 10 9 -15 52 -14 57 1 3 8 11 9 24 3 10 -5
26 -9 34 -10 8 0 14 -6 13 -12 -2 -7 6 -10 18 -8 25 5 51 -4 43 -16 -3 -5 2
-6 11 -3 17 7 65 -20 65 -37 0 -11 31 -46 37 -41 9 7 23 0 23 -12 0 -10 7 -13
21 -11 16 3 18 1 10 -8 -7 -10 -1 -18 24 -31 19 -10 38 -31 44 -46 5 -16 19
-31 31 -35 12 -4 19 -12 16 -20 -2 -7 6 -21 19 -31 13 -10 21 -22 18 -27 -3
-5 1 -13 8 -18 11 -6 11 -11 2 -20 -9 -9 -8 -17 4 -35 8 -13 12 -28 8 -34 -3
-5 1 -10 9 -10 23 0 31 4 28 13 -1 5 2 5 8 2 6 -4 9 -12 7 -19 -17 -45 -18
-56 -3 -56 9 0 13 -6 10 -14 -4 -11 0 -13 18 -9 15 3 19 2 10 -4 -18 -14 -23
-50 -6 -50 8 0 14 4 14 9 0 5 7 3 15 -6 17 -17 20 -30 5 -21 -5 3 -10 4 -10 1
0 -2 16 -14 35 -26 19 -12 33 -26 30 -31 -11 -17 77 -86 103 -81 6 2 12 -2 12
-8 0 -6 6 -17 13 -24 6 -7 27 -30 45 -50 18 -20 39 -36 47 -36 8 0 32 -9 52
-20 21 -11 34 -20 30 -20 -4 0 1 -8 11 -18 9 -10 25 -16 35 -14 9 2 23 0 30
-5 6 -6 27 -9 45 -8 26 3 31 0 22 -10 -16 -20 7 -30 25 -11 15 14 32 15 66 1
10 -3 20 -2 23 4 4 6 13 8 22 4 8 -3 23 4 34 17 22 26 26 20 9 -13 -11 -22
-11 -22 10 1 12 12 32 22 44 22 17 0 19 2 7 9 -8 6 -18 7 -24 4 -5 -3 -6 -1
-3 5 7 11 25 11 42 0 16 -10 77 42 71 58 -3 9 2 14 13 14 11 0 22 -6 24 -12 3
-7 6 -1 6 14 1 14 13 40 27 57 14 17 23 35 20 40 -4 5 -2 12 3 16 6 3 8 12 5
20 -3 8 1 24 10 37 9 12 16 17 16 10 0 -6 4 -12 9 -12 6 0 10 17 11 38 3 73 5
90 13 85 4 -2 7 1 7 7 0 7 6 10 14 7 10 -4 12 0 9 14 -3 11 3 29 13 41 11 12
13 18 7 14 -20 -11 -16 29 4 49 9 10 17 24 18 34 2 22 25 63 44 79 10 8 10 11
2 6 -9 -5 -12 -3 -7 5 4 6 21 18 37 26 16 9 27 20 24 26 -4 5 -11 7 -16 4 -5
-4 -9 -1 -9 4 0 6 6 11 13 11 15 0 57 45 57 60 0 6 6 10 13 10 8 0 20 11 27
25 7 14 18 25 23 25 5 0 27 16 49 35 21 20 43 33 47 30 5 -2 14 2 21 10 7 8
18 15 25 15 7 0 15 6 18 14 3 8 14 14 24 14 34 -3 93 13 93 24 0 20 12 0 20
-34 l8 -33 1 41 c1 42 14 68 19 40 2 -9 14 -19 26 -22z m-2227 -20 c-3 -3 -12
-4 -19 -1 -8 3 -5 6 6 6 11 1 17 -2 13 -5z m-4521 -102 c-5 -4 -66 26 -66 33
0 3 16 -3 35 -12 19 -9 33 -18 31 -21z m-128 -285 c15 4 15 3 2 -6 -22 -15
-30 -14 -29 7 0 9 3 12 5 5 3 -7 13 -9 22 -6z m-7 -124 c13 -16 12 -17 -3 -4
-10 7 -18 15 -18 17 0 8 8 3 21 -13z m3929 -47 c0 -11 -19 -15 -25 -6 -3 5 1
10 9 10 9 0 16 -2 16 -4z m-2327 -58 c52 -16 114 -75 109 -105 -3 -19 -10 -23
-36 -23 -19 0 -39 7 -46 16 -8 9 -25 14 -44 12 -26 -2 -30 -7 -28 -25 4 -28 1
-28 -51 -2 -50 26 -94 27 -111 3 -13 -18 -46 -14 -46 5 0 13 77 88 115 112 35
22 81 24 138 7z m-1593 -16 c-8 -3 -18 -9 -21 -13 -3 -5 -14 -3 -24 5 -18 13
-16 14 20 14 22 0 33 -3 25 -6z m8890 4 c0 -2 -7 -7 -16 -10 -8 -3 -12 -2 -9
4 6 10 25 14 25 6z m40 -26 c0 -5 -9 -14 -19 -19 -15 -8 -20 -7 -25 5 -5 13
-2 15 14 11 11 -3 20 -1 20 4 0 5 2 9 5 9 3 0 5 -4 5 -10z m-55 -20 c3 -5 1
-10 -4 -10 -6 0 -11 5 -11 10 0 6 2 10 4 10 3 0 8 -4 11 -10z m-208 -85 c4 -4
-2 -5 -14 -2 -13 3 -23 0 -23 -6 0 -6 -3 -8 -6 -4 -3 3 -3 10 0 15 7 12 32 10
43 -3z m-7192 -33 c-3 -3 -11 0 -18 7 -9 10 -8 11 6 5 10 -3 15 -9 12 -12z
m-149 -40 c-4 -3 -22 -6 -41 -6 -35 0 -47 -10 -22 -19 7 -2 8 -8 3 -13 -5 -5
-11 -4 -13 4 -3 6 -9 10 -13 7 -5 -3 -11 -1 -14 4 -3 5 18 21 46 35 46 23 53
24 56 11 2 -9 1 -19 -2 -23z m7154 -30 c0 -4 -9 -8 -20 -8 -22 0 -27 12 -7 19
14 5 27 -1 27 -11z m25 -2 c3 -5 1 -10 -4 -10 -6 0 -11 5 -11 10 0 6 2 10 4
10 3 0 8 -4 11 -10z m-7102 -18 c-19 -14 -35 -12 -41 6 -2 7 8 11 27 9 28 -2
29 -3 14 -15z m-153 -17 c7 -9 8 -15 2 -15 -5 0 -12 7 -16 15 -3 8 -4 15 -2
15 2 0 9 -7 16 -15z m357 -19 c3 -3 -23 -6 -60 -6 -36 0 -69 4 -72 10 -7 11
121 8 132 -4z m-2387 -120 c0 -64 -4 -87 -16 -97 -8 -7 -45 -50 -81 -96 -49
-62 -72 -83 -90 -83 -25 0 -25 -2 -2 91 16 64 154 269 181 269 4 0 8 -38 8
-84z m65 72 c14 -6 25 -14 25 -18 0 -9 -60 -99 -71 -106 -5 -3 -9 26 -9 65 0
77 5 82 55 59z m2535 -28 c11 -8 7 -9 -15 -4 -37 8 -45 14 -19 14 10 0 26 -5
34 -10z m-550 -10 c0 -5 -7 -10 -15 -10 -8 0 -15 5 -15 10 0 6 7 10 15 10 8 0
15 -4 15 -10z m-1827 -40 c-4 -3 -21 -17 -38 -29 -28 -21 -30 -21 -36 -4 -14
33 -9 38 37 39 25 1 42 -2 37 -6z m27 -82 c0 -16 -3 -19 -11 -11 -6 6 -8 16
-5 22 11 17 16 13 16 -11z m67 -14 c-3 -3 -12 -4 -19 -1 -8 3 -5 6 6 6 11 1
17 -2 13 -5z m9528 -4 c3 -6 -1 -7 -9 -4 -18 7 -21 14 -7 14 6 0 13 -4 16 -10z
m-9849 -197 c-3 -3 -37 -1 -77 3 l-71 9 73 89 74 89 3 -93 c1 -51 1 -95 -2
-97z m12465 131 c12 -15 10 -15 -15 1 l-29 19 12 -21 c17 -33 13 -38 -8 -12
-23 28 -17 53 8 39 10 -5 24 -17 32 -26z m-11799 -3 c37 -33 31 -53 -9 -31
-26 15 -51 60 -33 60 5 0 24 -13 42 -29z m11708 -4 c35 -23 77 -83 66 -94 -4
-4 -13 3 -22 15 -15 21 -52 32 -39 12 15 -24 -14 -7 -50 30 -28 29 -34 40 -22
40 9 0 17 5 17 10 0 15 14 12 50 -13z m180 13 c0 -5 -2 -10 -4 -10 -3 0 -8 5
-11 10 -3 6 -1 10 4 10 6 0 11 -4 11 -10z m-11583 -107 c-3 -2 -28 7 -55 21
-50 25 -73 46 -53 46 6 0 11 -5 11 -12 0 -6 3 -8 7 -5 3 4 12 2 20 -4 9 -9 13
-8 13 0 0 6 3 10 8 9 18 -3 42 16 44 36 1 11 3 -3 5 -33 2 -29 2 -55 0 -58z
m11271 62 c25 -22 39 -41 35 -50 -3 -8 -10 -12 -17 -8 -6 4 -13 8 -16 8 -12 0
-78 73 -73 79 13 12 31 5 71 -29z m58 -7 l29 -31 -32 23 c-18 13 -33 27 -33
32 0 13 5 10 36 -24z m162 -23 c-3 -3 -9 2 -12 12 -6 14 -5 15 5 6 7 -7 10
-15 7 -18z m-2802 -13 c1 -7 0 -8 -3 -2 -2 5 -9 8 -14 4 -5 -3 -9 0 -9 6 0 15
23 7 26 -8z m-8 -30 c2 -7 -2 -10 -12 -6 -9 3 -16 11 -16 16 0 13 23 5 28 -10z
m-241 -22 c1 -11 -4 -20 -13 -20 -17 0 -18 12 -2 28 7 7 12 12 13 12 0 0 1 -9
2 -20z m-9444 -16 l37 -7 0 -55 0 -55 -22 20 c-13 11 -47 33 -76 48 -79 43
-85 55 -26 55 27 0 66 -3 87 -6z m2225 -36 c24 -55 25 -62 15 -65 -10 -4 -43
66 -43 90 0 27 8 20 28 -25z m7325 16 c-3 -8 -13 -14 -22 -14 -13 0 -13 2 -2
9 7 5 11 14 7 20 -4 7 -1 9 8 5 8 -3 12 -12 9 -20z m-9365 0 c28 -4 32 -8 32
-37 -1 -63 -55 -247 -72 -247 -13 0 -34 57 -48 127 -7 35 -17 60 -21 57 -5 -3
-6 -11 -3 -17 5 -8 4 -9 -3 -2 -6 6 -13 38 -15 73 l-4 62 50 -5 c28 -3 66 -8
84 -11z m9314 -6 c-2 -10 -9 -21 -15 -25 -5 -3 -7 -2 -4 3 3 6 2 16 -4 24 -7
13 -9 12 -9 -2 0 -20 -8 -22 -30 -8 -12 7 -11 10 8 17 38 15 60 11 54 -9z
m-6982 -22 c-23 -21 -113 -78 -99 -63 8 9 113 86 119 87 2 0 -7 -11 -20 -24z
m7090 20 c0 -2 -9 -6 -20 -9 -11 -3 -20 -1 -20 4 0 5 9 9 20 9 11 0 20 -2 20
-4z m-9696 -33 c18 -16 54 -43 79 -60 40 -28 47 -38 47 -65 0 -25 -3 -29 -10
-18 -5 8 -17 15 -27 15 -10 1 -17 6 -15 13 1 7 -5 12 -14 12 -9 0 -14 5 -12
12 5 13 -21 48 -35 48 -9 0 -56 51 -57 63 0 13 12 7 44 -20z m473 11 c-3 -3
-12 -4 -19 -1 -8 3 -5 6 6 6 11 1 17 -2 13 -5z m9012 -7 c9 -11 5 -13 -17 -11
-38 3 -39 3 -22 14 20 13 26 12 39 -3z m64 -11 c6 -14 -21 -32 -31 -21 -3 3 0
5 7 5 8 0 11 7 7 15 -3 8 -1 15 3 15 5 0 11 -6 14 -14z m102 -6 c3 -5 1 -10
-4 -10 -6 0 -11 5 -11 10 0 6 2 10 4 10 3 0 8 -4 11 -10z m-4946 -43 c0 -19
-1 -20 -8 -4 -4 10 -11 17 -15 15 -5 -2 -10 5 -12 14 -2 15 1 16 17 8 10 -6
19 -21 18 -33z m4754 9 c-10 -6 -23 -11 -30 -12 -12 -2 -27 25 -18 34 3 3 5 0
5 -6 0 -7 8 -12 18 -11 10 0 12 3 5 6 -7 2 -13 9 -13 14 0 5 11 3 25 -3 24
-11 24 -13 8 -22z m154 19 c5 -4 2 -5 -6 0 -11 6 -13 4 -8 -8 9 -23 0 -21 -13
2 -7 15 -7 19 5 17 8 -1 18 -6 22 -11z m-8934 -2 c-7 -2 -19 -2 -25 0 -7 3 -2
5 12 5 14 0 19 -2 13 -5z m8825 -18 c-3 -3 -9 2 -12 12 -6 14 -5 15 5 6 7 -7
10 -15 7 -18z m-104 -17 c-7 -12 -52 -10 -59 2 -4 7 4 9 24 5 26 -4 30 -2 25
12 -5 15 -4 15 4 3 6 -8 8 -18 6 -22z m-8666 -70 l3 -78 -46 0 -45 0 0 81 0
80 43 -3 42 -3 3 -77z m9790 57 c-3 -3 -9 2 -12 12 -6 14 -5 15 5 6 7 -7 10
-15 7 -18z m-1158 -25 c-20 -13 -43 -13 -35 0 4 6 10 8 15 5 5 -3 12 0 15 6 4
5 10 8 13 4 4 -3 0 -10 -8 -15z m106 13 c-4 -5 -11 -8 -14 -8 -4 0 -13 -4 -20
-9 -7 -4 -16 -5 -19 -2 -4 3 -1 6 6 6 7 0 10 4 7 8 -2 4 7 9 21 10 15 1 23 -1
19 -5z m-9311 -13 c-3 -5 -2 -10 4 -10 5 0 10 -8 9 -17 0 -10 3 -33 7 -50 5
-23 4 -33 -4 -33 -8 0 -10 8 -6 20 5 15 3 18 -8 14 -11 -4 -16 5 -19 33 -3 22
0 41 6 45 15 10 18 10 11 -2z m9145 -40 c0 -5 -4 -10 -10 -10 -5 0 -10 5 -10
10 0 6 5 10 10 10 6 0 10 -4 10 -10z m10 -26 c0 -8 -19 -13 -24 -6 -3 5 1 9 9
9 8 0 15 -2 15 -3z m-9156 -86 c-4 -7 -3 -8 4 -4 8 5 12 -1 12 -17 0 -14 6
-30 14 -36 17 -15 2 -72 -26 -98 -17 -16 -18 -12 -18 93 1 79 3 104 11 91 5
-9 7 -22 3 -29z m9536 24 c33 -26 17 -42 -40 -42 -27 0 -52 -4 -55 -10 -15
-24 -24 -7 -10 20 26 51 67 63 105 32z m-4940 4 c0 -3 -4 -8 -10 -11 -5 -3
-10 -1 -10 4 0 6 5 11 10 11 6 0 10 -2 10 -4z m6284 -31 c-36 -32 -54 -42 -54
-30 0 6 80 65 88 65 3 0 -12 -16 -34 -35z m-2425 11 c17 -20 -5 -33 -61 -37
-56 -5 -60 4 -15 31 38 23 60 25 76 6z m646 4 c-3 -5 -11 -10 -16 -10 -6 0 -7
5 -4 10 3 6 11 10 16 10 6 0 7 -4 4 -10z m-6945 -14 c0 -11 -19 -15 -25 -6 -3
5 1 10 9 10 9 0 16 -2 16 -4z m-2093 -32 c-9 -9 -28 6 -21 18 4 6 10 6 17 -1
6 -6 8 -13 4 -17z m512 -9 c2 -3 -17 -5 -42 -5 -26 0 -47 4 -47 10 0 9 79 5
89 -5z m-483 -32 c-2 -10 1 -29 7 -43 10 -26 12 -35 23 -87 3 -18 11 -33 17
-33 8 0 8 -3 1 -10 -6 -6 -43 -14 -82 -17 l-72 -6 0 40 c0 28 6 46 21 59 12
10 28 32 36 49 14 28 42 65 49 65 2 0 1 -8 0 -17z m2189 7 c4 -6 -1 -7 -11 -3
-12 4 -15 2 -12 -8 3 -8 -2 -19 -11 -26 -9 -7 -11 -13 -4 -13 6 0 9 -8 6 -19
-3 -13 -11 -17 -24 -14 -14 4 -17 11 -13 30 4 16 2 29 -7 35 -10 7 -8 8 7 3
13 -3 26 1 34 10 14 17 26 19 35 5z m8340 -28 c-8 -8 -25 10 -25 26 0 13 2 13
14 -4 8 -10 13 -21 11 -22z m-10045 -19 c0 -64 -8 -74 -53 -66 -34 5 -37 8
-37 39 0 28 4 34 23 34 l22 1 -24 19 -23 20 46 0 46 0 0 -47z m9430 18 c0 -6
-11 -23 -25 -38 -19 -22 -24 -23 -19 -8 7 19 33 55 41 55 1 0 3 -4 3 -9z m560
-65 c0 -15 -3 -16 -15 -6 -8 7 -15 9 -16 4 0 -5 -4 1 -10 14 -6 16 -5 31 3 45
11 22 12 22 24 -8 7 -16 13 -38 14 -49z m2096 21 c-2 -12 -11 -36 -22 -52 -18
-27 -19 -28 -22 -8 -4 24 23 83 37 83 5 0 8 -10 7 -23z m-3236 -25 c0 -13 -41
-54 -48 -48 -3 3 6 17 19 30 28 28 29 29 29 18z m-991 -21 c12 -8 12 -12 -1
-25 -15 -14 -17 -14 -22 0 -13 33 -4 42 23 25z m-6404 -68 c-2 -10 -4 -19 -4
-21 -1 -2 -6 0 -11 3 -8 5 -7 11 1 21 15 18 18 18 14 -3z m6857 -22 c6 -1 7
-71 1 -71 -5 0 -43 64 -43 72 0 3 8 5 18 3 9 -2 20 -4 24 -4z m1824 -32 c13
-14 14 -20 4 -17 -8 2 -14 -4 -15 -12 0 -15 -6 -20 -26 -20 -6 0 -9 6 -6 14 3
8 -1 17 -9 20 -9 3 -12 10 -9 16 4 6 11 8 16 5 5 -4 9 -1 9 4 0 17 15 13 36
-10z m-8646 -33 c0 -3 -4 -8 -10 -11 -5 -3 -10 -1 -10 4 0 6 5 11 10 11 6 0
10 -2 10 -4z m6095 -16 c3 -6 -1 -7 -9 -4 -18 7 -21 14 -7 14 6 0 13 -4 16
-10z m2636 -37 c13 -16 12 -17 -3 -4 -10 7 -18 15 -18 17 0 8 8 3 21 -13z
m-1946 -3 c18 -8 17 -9 -7 -9 -16 -1 -28 4 -28 9 0 12 8 12 35 0z m1964 -40
c18 -15 21 -24 13 -32 -8 -8 -25 -2 -61 22 -52 33 -61 45 -38 53 14 5 52 -14
86 -43z m-1899 20 c13 -9 13 -10 0 -10 -8 0 -22 5 -30 10 -13 9 -13 10 0 10 8
0 22 -5 30 -10z m-34 -25 c48 -28 66 -54 70 -100 2 -26 1 -28 -11 -12 -15 20
-80 26 -97 9 -7 -7 -21 -12 -32 -12 -12 0 -34 -9 -51 -20 -22 -14 -25 -20 -12
-20 32 0 97 25 97 37 0 7 5 13 10 13 6 0 10 -9 10 -19 0 -22 -86 -101 -110
-101 -8 0 3 -9 25 -21 78 -41 94 -71 54 -99 -12 -8 -45 -32 -73 -52 -27 -21
-66 -41 -86 -44 -55 -9 -57 -10 -53 -41 6 -41 -18 -60 -55 -44 -26 13 -26 12
-8 -8 17 -19 17 -20 -1 -45 -10 -14 -22 -26 -28 -26 -5 0 -3 -5 5 -11 11 -8
-4 -9 -55 -5 -38 3 -89 6 -112 6 -54 0 -55 8 -3 109 22 43 40 87 40 98 0 32
26 88 34 72 3 -8 3 -4 0 9 -7 28 6 155 15 147 3 -4 12 -39 18 -78 11 -64 17
-89 23 -107 1 -3 3 -14 4 -25 0 -13 9 -21 24 -23 24 -4 29 7 10 26 -9 9 -7 13
5 18 12 4 17 18 17 48 0 22 8 50 16 61 16 19 16 19 10 -5 l-7 -25 20 23 c11
13 23 40 27 60 10 53 32 92 73 130 23 21 29 31 16 26 -18 -6 -17 -4 5 22 14
15 32 34 40 41 24 20 80 15 126 -12z m1109 11 c19 -8 35 -22 35 -30 0 -20 -1
-20 -50 5 -22 12 -37 25 -34 30 7 12 9 12 49 -5z m702 -11 c0 -10 -6 -14 -14
-10 -8 3 -21 5 -29 5 -8 0 -14 5 -14 10 0 6 13 10 28 10 19 0 29 -5 29 -15z
m-4027 -35 c0 -5 -4 -10 -10 -10 -5 0 -10 5 -10 10 0 6 5 10 10 10 6 0 10 -4
10 -10z m-6120 -19 c0 -24 -16 -36 -23 -19 -3 8 -6 6 -6 -5 -1 -10 -6 -15 -12
-12 -6 4 -8 13 -5 20 2 7 -1 18 -7 24 -8 8 -3 11 21 11 25 0 32 -4 32 -19z
m7017 5 c-3 -8 -1 -16 5 -18 6 -2 4 -11 -7 -21 -9 -10 -20 -15 -23 -12 -4 3 0
11 8 16 11 8 12 12 3 16 -7 2 -13 9 -13 14 0 6 5 7 10 4 6 -3 10 -1 10 4 0 6
3 11 6 11 3 0 4 -6 1 -14z m-942 -6 c3 -5 -1 -10 -10 -10 -9 0 -13 5 -10 10 3
6 8 10 10 10 2 0 7 -4 10 -10z m53 -13 c14 -17 25 -64 18 -76 -9 -14 -76 18
-76 36 0 7 6 13 13 14 9 0 9 2 -1 6 -10 4 -10 8 -1 19 14 17 33 18 47 1z
m-368 -7 c0 -5 -4 -10 -10 -10 -5 0 -10 5 -10 10 0 6 5 10 10 10 6 0 10 -4 10
-10z m-4343 -7 c-4 -3 -1 -13 6 -21 10 -13 9 -14 -3 -10 -19 6 -26 38 -9 38 7
0 9 -3 6 -7z m4584 -26 c-10 -9 -11 -8 -5 6 3 10 9 15 12 12 3 -3 0 -11 -7
-18z m2499 -21 c0 -6 -7 -2 -15 8 -8 11 -15 25 -15 30 0 6 7 2 15 -8 8 -11 15
-25 15 -30z m961 21 c-10 -9 -11 -8 -5 6 3 10 9 15 12 12 3 -3 0 -11 -7 -18z
m-3701 3 c0 -5 -10 -10 -22 -9 -22 0 -22 1 -3 9 11 5 21 9 23 9 1 1 2 -3 2 -9z
m-5790 -10 c0 -5 -5 -10 -11 -10 -5 0 -7 5 -4 10 3 6 8 10 11 10 2 0 4 -4 4
-10z m1327 -52 c-2 -13 -4 -5 -4 17 -1 22 1 32 4 23 2 -10 2 -28 0 -40z m6777
0 c-13 -43 -34 -86 -34 -67 0 9 30 100 35 109 14 22 13 7 -1 -42z m401 2 l17
-35 -21 22 c-11 12 -21 30 -21 39 0 21 3 18 25 -26z m-2210 7 c6 -5 4 -7 -5
-4 -8 2 -24 0 -35 -6 -20 -10 -20 -10 -1 12 11 11 22 18 25 14 3 -4 11 -12 16
-16z m792 -16 c1 -15 -6 -21 -30 -23 -22 -2 -35 -10 -42 -25 -5 -13 -18 -23
-27 -23 -14 0 -18 -9 -19 -37 -1 -21 -2 -47 -3 -58 -1 -13 -8 -19 -18 -19 -10
1 -15 -2 -12 -8 9 -14 -14 -36 -45 -43 -30 -6 -39 -36 -15 -56 16 -13 19 -29
4 -29 -6 0 -15 12 -21 27 -8 22 -12 24 -19 13 -13 -20 -12 -10 1 31 21 68 20
66 28 48 5 -13 10 -13 31 -2 24 12 24 13 3 13 -12 0 -25 5 -29 12 -4 7 -3 8 5
4 6 -4 18 0 27 9 12 12 19 13 30 4 11 -9 14 -7 14 10 0 14 -4 20 -12 15 -7 -5
-9 -2 -5 9 4 12 2 14 -11 10 -14 -6 -15 -4 -5 8 6 8 12 17 12 22 1 4 4 7 9 8
11 2 64 40 85 61 10 10 22 16 27 13 4 -3 10 2 14 10 8 21 21 19 23 -4z m-1080
-7 c-3 -3 -12 -4 -19 -1 -8 3 -5 6 6 6 11 1 17 -2 13 -5z m-4678 -31 c0 -5 -4
-17 -9 -28 -8 -18 -9 -17 -9 8 -1 15 4 27 9 27 6 0 10 -3 9 -7z m7273 -130
c17 -38 36 -71 42 -75 7 -5 5 -8 -5 -8 -9 0 -24 -9 -34 -20 -10 -11 -22 -17
-28 -13 -6 4 -3 11 7 18 15 11 15 19 5 61 -13 53 -57 144 -70 144 -5 0 -6 7
-2 15 7 21 42 -29 85 -122z m-251 100 c5 -5 4 -15 -2 -23 -8 -13 -11 -13 -23
2 -7 10 -24 22 -37 28 -21 9 -19 10 15 6 22 -3 43 -9 47 -13z m-2344 -7 c0 -8
-9 -17 -19 -19 -30 -8 -15 21 18 33 0 0 1 -6 1 -14z m-472 -16 c10 -11 16 -20
13 -20 -3 0 -13 9 -23 20 -10 11 -16 20 -13 20 3 0 13 -9 23 -20z m666 -31
c-24 -21 -49 -39 -55 -39 -6 1 11 21 39 45 27 24 52 41 55 38 3 -3 -15 -23
-39 -44z m3439 32 c0 -11 -45 -41 -61 -41 -7 0 -2 11 11 25 23 25 50 33 50 16z
m-303 -29 c-15 -15 -27 -33 -27 -38 0 -17 -37 -47 -44 -35 -6 10 72 99 88 100
6 1 -2 -12 -17 -27z m-8533 7 c15 -7 30 -26 37 -46 6 -19 19 -39 29 -45 10 -6
16 -18 13 -26 -4 -9 -23 4 -64 44 -73 73 -79 102 -15 73z m4762 -30 c19 -22
19 -22 -3 -8 -13 8 -23 17 -23 21 0 12 6 9 26 -13z m400 -67 c2 -63 0 -71 -7
-44 -6 18 -14 30 -19 27 -6 -4 -10 -1 -10 4 0 6 3 11 8 11 4 0 8 14 9 30 1 17
-2 30 -7 30 -6 0 -10 5 -10 10 0 6 8 10 18 10 15 0 17 -11 18 -78z m-4935 58
c63 -12 103 -44 89 -71 -9 -15 -15 -16 -40 -8 -16 6 -32 19 -35 30 -4 10 -12
19 -20 19 -13 0 -66 39 -54 40 4 0 30 -5 60 -10z m136 -56 c-3 -3 -12 -4 -19
-1 -8 3 -5 6 6 6 11 1 17 -2 13 -5z m220 -14 c-1 -22 -5 -24 -26 -11 -16 10
-6 31 14 31 8 0 13 -9 12 -20z m-77 -7 c12 -4 11 -7 -5 -14 -17 -8 -17 -9 5
-5 14 2 43 -4 65 -13 37 -17 38 -18 17 -25 -24 -8 -80 1 -98 15 -6 5 -42 11
-80 15 -79 6 -112 24 -45 24 27 0 40 4 36 11 -7 10 69 5 105 -8z m7420 -35
c11 -24 20 -52 20 -63 0 -11 9 -30 19 -42 19 -23 38 -32 26 -13 -3 6 1 10 10
10 9 0 13 -4 10 -10 -10 -16 18 -12 60 10 46 24 71 25 82 6 4 -8 22 -22 38
-30 18 -10 23 -16 13 -16 -9 0 -20 5 -23 10 -3 6 -15 10 -25 10 -10 0 -20 6
-23 13 -2 6 -8 9 -12 5 -4 -4 -2 -14 5 -23 11 -13 7 -15 -33 -15 -31 0 -47 -5
-51 -16 -3 -9 -11 -12 -18 -8 -8 5 -9 2 -5 -9 3 -10 2 -17 -3 -17 -6 0 -10 9
-10 19 0 11 -9 21 -23 25 -23 5 -28 17 -72 154 -8 23 -12 42 -9 42 3 0 14 -19
24 -42z m-406 13 c4 -5 -3 -7 -14 -4 -23 6 -26 13 -6 13 8 0 17 -4 20 -9z
m-7324 -53 c0 -11 -63 2 -79 17 -7 7 -10 18 -7 23 7 12 86 -25 86 -40z m454
34 c2 -4 1 -23 -3 -42 l-8 -35 -4 43 c-4 38 2 54 15 34z m6911 -2 c3 -5 2 -10
-4 -10 -5 0 -13 5 -16 10 -3 6 -2 10 4 10 5 0 13 -4 16 -10z m195 -10 c0 -5
-5 -10 -11 -10 -5 0 -7 5 -4 10 3 6 8 10 11 10 2 0 4 -4 4 -10z m-214 -10 c39
-15 23 -23 -23 -11 -25 7 -51 7 -71 2 -18 -5 -32 -6 -32 -1 0 20 81 27 126 10z
m95 -30 c25 0 92 -44 95 -62 3 -23 -5 -23 -25 1 -9 10 -27 22 -41 26 -32 10
-90 54 -90 68 0 6 10 1 23 -11 13 -12 30 -22 38 -22z m-7473 -28 c-3 -40 2
-54 17 -48 9 3 18 -1 22 -10 9 -24 -2 -26 -29 -4 -28 21 -45 92 -21 83 7 -3
12 -12 11 -21z m7392 -2 c11 -7 -1 -9 -40 -9 -50 2 -52 2 -20 9 19 4 37 8 40
9 3 0 12 -4 20 -9z m-110 -4 c0 -2 -7 -6 -15 -10 -8 -3 -15 -1 -15 4 0 6 7 10
15 10 8 0 15 -2 15 -4z m440 -6 c0 -5 -14 -10 -31 -10 -17 0 -28 4 -24 10 3 6
17 10 31 10 13 0 24 -4 24 -10z m-3697 -25 c-10 -13 -22 -25 -27 -25 -5 0 1
11 14 25 30 32 36 32 13 0z m3591 6 c4 -5 -3 -7 -14 -4 -23 6 -26 13 -6 13 8
0 17 -4 20 -9z m771 -1 c3 -6 -1 -13 -10 -16 -19 -8 -30 0 -20 15 8 14 22 14
30 1z m-9175 -4 c0 -2 -7 -7 -16 -10 -8 -3 -12 -2 -9 4 6 10 25 14 25 6z
m5830 -34 c0 -15 -11 -21 -27 -15 -12 5 -12 7 -1 14 17 11 28 11 28 1z m2256
-5 c4 -4 -2 -7 -14 -7 -12 0 -22 4 -22 9 0 10 26 9 36 -2z m349 4 c3 -5 1 -12
-5 -16 -5 -3 -10 1 -10 9 0 18 6 21 15 7z m-3635 -26 c0 -8 -2 -15 -4 -15 -2
0 -6 7 -10 15 -3 8 -1 15 4 15 6 0 10 -7 10 -15z m4380 5 c0 -5 -3 -10 -8 -10
-4 0 -22 -13 -40 -29 l-32 -30 6 27 c4 15 11 33 17 40 11 14 57 16 57 2z
m-2470 -7 c0 -5 -24 -19 -53 -32 -28 -13 -60 -28 -69 -32 -22 -11 -28 -11 -28
-1 0 4 27 18 60 31 33 13 60 28 60 33 0 4 7 8 15 8 8 0 15 -3 15 -7z m978 -10
c-16 -2 -40 -2 -55 0 -16 2 -3 4 27 4 30 0 43 -2 28 -4z m95 -10 c-13 -2 -33
-2 -45 0 -13 2 -3 4 22 4 25 0 35 -2 23 -4z m225 0 c-26 -2 -71 -2 -100 0 -29
2 -8 3 47 3 55 0 79 -1 53 -3z m-403 -23 c-3 -5 -1 -10 6 -10 10 0 10 -3 2
-11 -6 -6 -16 -8 -22 -5 -12 8 -4 36 11 36 5 0 6 -4 3 -10z m535 -15 c28 -10
81 -15 156 -15 122 0 164 -11 138 -37 -11 -11 -40 -13 -141 -8 -163 8 -165 8
-186 45 -21 35 -22 34 33 15z m510 0 c0 -8 -2 -15 -4 -15 -2 0 -6 7 -10 15 -3
8 -1 15 4 15 6 0 10 -7 10 -15z m512 -7 c-7 -7 -12 -8 -12 -2 0 14 12 26 19
19 2 -3 -1 -11 -7 -17z m-1479 5 c-7 -2 -21 -2 -30 0 -10 3 -4 5 12 5 17 0 24
-2 18 -5z m-7618 -39 c-107 -28 -112 -28 -112 -9 0 10 4 12 13 4 8 -7 16 -5
27 5 12 13 50 19 142 23 11 1 -20 -10 -70 -23z m6474 3 c-2 -1 -15 -11 -29
-22 l-25 -20 19 23 c11 12 24 22 29 22 6 0 8 -1 6 -3z m175 -13 c9 -23 4 -26
-56 -30 -29 -2 -68 -6 -86 -9 -49 -9 -31 10 23 25 25 7 48 17 51 21 9 16 62
10 68 -7z m-511 -16 c-6 -7 -16 -31 -23 -53 -7 -22 -15 -35 -17 -28 -3 8 -8 9
-16 3 -7 -5 -28 -22 -47 -37 l-35 -28 23 33 c13 17 26 32 30 32 4 0 13 10 21
22 l14 22 -29 -18 c-16 -10 -39 -30 -52 -45 l-24 -26 16 32 c18 36 65 73 94
73 11 0 25 7 32 15 15 18 27 20 13 3z m1857 2 c-14 -4 -20 -8 -15 -9 6 -1 54
-10 108 -21 55 -11 118 -20 140 -20 23 -1 69 -7 102 -15 l60 -14 -65 6 c-36 3
-62 3 -59 -1 9 -9 159 -23 159 -14 0 8 72 1 130 -13 l35 -8 -37 2 c-21 2 -38
0 -38 -4 0 -11 127 -19 305 -19 203 0 215 -3 215 -40 0 -47 -17 -53 -119 -36
-50 8 -99 12 -111 9 -18 -5 -218 21 -262 33 -10 3 -18 11 -18 19 0 18 -12 21
-155 41 -66 9 -127 20 -136 25 -8 4 -112 24 -230 44 -118 20 -218 38 -224 40
-5 2 46 3 115 3 77 0 115 -3 100 -8z m-8135 -10 c-25 -11 -58 -12 -52 -2 3 4
20 8 39 9 26 1 29 0 13 -7z m8238 3 c-7 -2 -19 -2 -25 0 -7 3 -2 5 12 5 14 0
19 -2 13 -5z m241 -11 c2 -4 -39 -6 -92 -4 -142 5 -152 9 -25 11 61 0 114 -3
117 -7z m638 -15 c-12 -13 -22 -31 -22 -39 0 -14 -19 -17 -127 -20 -110 -4
-134 -1 -173 15 -31 14 -79 22 -155 26 l-110 6 109 8 c60 4 186 7 280 8 94 0
180 4 191 9 30 13 30 12 7 -13z m-9472 3 c0 -6 11 -8 25 -4 19 5 25 2 25 -10
0 -9 -3 -16 -7 -17 -5 0 -16 -2 -26 -4 -9 -2 -15 1 -11 6 3 5 1 9 -4 9 -6 0
-12 7 -16 15 -3 8 -1 15 4 15 6 0 10 -5 10 -10z m6435 -20 c3 -5 1 -10 -4 -10
-6 0 -11 5 -11 10 0 6 2 10 4 10 3 0 8 -4 11 -10z m779 -26 c40 -20 85 -69 73
-80 -4 -4 -14 -1 -23 7 -18 15 -56 18 -65 6 -3 -5 -13 -2 -21 7 -23 23 -88 54
-128 61 -22 4 -53 1 -80 -9 -63 -22 -62 -12 2 13 68 27 183 25 242 -5z m-99
-41 c19 -13 19 -14 -7 -9 -15 2 -32 7 -38 11 -6 3 -7 0 -4 -9 5 -12 -1 -16
-22 -16 -27 0 -27 -1 -8 -15 14 -11 15 -14 4 -15 -12 0 -12 -2 -2 -9 9 -5 -8
-12 -48 -20 -61 -12 -128 -46 -205 -103 l-40 -30 35 32 c19 17 59 45 88 62 28
16 52 32 52 35 0 15 -76 -9 -108 -34 l-36 -27 27 36 c44 57 138 114 210 127
47 8 73 4 102 -16z m218 7 c5 -4 -3 -5 -17 -3 -15 3 -29 10 -32 15 -7 11 36 1
49 -12z m-6634 -17 c0 -25 -1 -26 -9 -8 -12 27 -12 35 0 35 6 0 10 -12 9 -27z
m5917 2 c1 -15 -3 -25 -12 -25 -14 0 -19 31 -7 43 12 13 18 7 19 -18z m294 20
c0 -2 -10 -9 -22 -15 -22 -11 -22 -10 -4 4 21 17 26 19 26 11z m-6243 -27 c-3
-8 -6 -5 -6 6 -1 11 2 17 5 13 3 -3 4 -12 1 -19z m913 12 c0 -5 -2 -10 -4 -10
-3 0 -8 5 -11 10 -3 6 -1 10 4 10 6 0 11 -4 11 -10z m3090 0 c0 -5 -12 -10
-26 -10 -14 0 -23 4 -19 10 3 6 15 10 26 10 10 0 19 -4 19 -10z m1801 -34 c-6
-8 -11 -18 -10 -22 3 -21 -2 -34 -13 -31 -7 1 -15 -15 -18 -40 -4 -24 -10 -46
-15 -50 -4 -5 -6 4 -3 18 4 20 1 26 -11 24 -9 -1 -15 -10 -15 -19 1 -8 -2 -14
-6 -11 -4 3 -20 -13 -35 -35 -15 -22 -30 -39 -32 -36 -5 5 19 56 27 56 4 0 7
6 7 13 0 6 4 21 8 32 5 16 5 17 -4 5 -9 -13 -11 -13 -11 3 0 10 8 17 19 17 10
0 41 22 67 50 26 27 50 48 52 45 3 -2 0 -11 -7 -19z m389 20 c0 -2 -8 -10 -17
-17 -16 -13 -17 -12 -4 4 13 16 21 21 21 13z m-320 -143 c-33 -91 -53 -133
-62 -133 -5 0 -2 12 5 28 8 15 17 39 21 54 10 42 46 121 52 115 3 -3 -4 -32
-16 -64z m-2046 37 l72 0 14 -37 c8 -21 17 -42 19 -47 2 -6 -283 -3 -368 4 -2
0 2 6 8 13 6 8 36 20 66 27 54 13 55 14 38 33 -18 20 -17 20 31 13 27 -3 81
-6 120 -6z m2501 -30 c3 -5 1 -10 -4 -10 -6 0 -11 5 -11 10 0 6 2 10 4 10 3 0
8 -4 11 -10z m-46 -38 c-13 -10 -54 -29 -90 -42 -36 -12 -77 -31 -90 -41 l-23
-17 29 1 c17 0 59 0 95 -2 67 -3 65 -5 -23 -25 -15 -4 -25 -11 -22 -16 10 -16
-12 -11 -26 6 -15 18 -69 12 -106 -12 -19 -12 -23 -12 -23 -1 0 8 11 20 25 27
14 7 25 17 25 21 0 21 187 116 234 118 16 1 16 -1 -5 -17z m-268 -49 c-11 -21
-20 -35 -21 -31 0 12 33 78 38 74 2 -2 -6 -21 -17 -43z m-1542 23 c7 -8 34
-22 59 -32 26 -9 54 -19 62 -22 8 -3 -95 -11 -230 -17 l-245 -11 -74 40 -73
41 83 5 c46 3 156 7 245 8 132 2 163 0 173 -12z m-616 -34 c22 -10 37 -22 35
-27 -8 -24 83 -30 442 -28 290 1 340 -1 220 -7 -85 -4 -279 -9 -430 -11 -269
-4 -275 -4 -275 16 -1 11 -6 19 -12 18 -7 -2 -21 11 -33 27 -20 28 -20 30 -3
29 10 0 35 -8 56 -17z m1766 -78 c-10 -13 -10 -17 2 -25 9 -7 2 -8 -23 -3 -38
6 -45 -1 -39 -38 2 -11 -17 -10 -41 3 -19 10 -17 15 43 75 l64 63 3 -30 c2
-17 -2 -37 -9 -45z m4984 69 c-35 -2 -91 -2 -125 0 -35 2 -7 3 62 3 69 0 97
-1 63 -3z m-12365 -91 c2 -13 -4 -25 -17 -32 -19 -10 -21 -8 -21 18 0 46 32
58 38 14z m72 18 c-12 -8 -12 -10 5 -10 17 0 17 -2 5 -10 -23 -15 -30 -12 -30
10 0 12 7 20 18 20 14 0 15 -2 2 -10z m7840 -29 c0 -4 -24 -15 -54 -25 -30
-10 -67 -29 -82 -42 l-29 -23 39 -1 c22 0 36 -3 33 -7 -4 -3 -25 -6 -47 -5
-42 2 -90 -12 -90 -26 0 -10 95 -31 149 -33 31 -1 28 -3 -19 -11 -83 -15 -88
-17 -70 -31 8 -7 16 -18 18 -25 4 -22 -38 -10 -67 19 -14 14 -32 28 -39 30
-18 6 25 88 52 99 12 4 43 26 69 48 54 44 105 64 125 49 6 -5 12 -12 12 -16z
m-8104 -36 c-35 -30 -66 -33 -66 -6 0 19 15 25 75 29 17 2 16 -2 -9 -23z
m7108 -6 c15 -12 25 -23 22 -26 -7 -7 -116 19 -116 28 0 24 62 23 94 -2z m333
-5 c25 -22 25 -24 3 -10 -13 9 -33 16 -43 16 -15 0 -13 -4 10 -25 l28 -25 -32
16 c-42 20 -48 30 -26 43 25 15 29 14 60 -15z m397 8 c3 -5 -1 -9 -9 -9 -8 0
-12 4 -9 9 3 4 7 8 9 8 2 0 6 -4 9 -8z m-7994 -42 c0 -23 -4 -30 -20 -30 -16
0 -20 7 -20 30 0 23 4 30 20 30 16 0 20 -7 20 -30z m630 -24 c0 -40 -11 -56
-36 -56 -2 0 -4 23 -4 50 0 43 3 50 20 50 17 0 20 -7 20 -44z m6767 38 c-3 -3
-12 -4 -19 -1 -8 3 -5 6 6 6 11 1 17 -2 13 -5z m129 -20 c19 -9 37 -22 41 -28
4 -6 -4 -3 -18 6 -25 16 -99 35 -99 26 0 -3 23 -19 51 -37 28 -17 49 -35 45
-38 -3 -3 -14 1 -23 9 -27 23 -84 50 -91 43 -4 -4 0 -10 8 -15 8 -5 24 -16 35
-25 19 -16 19 -16 -15 -12 -19 3 -44 8 -55 12 -14 5 -12 0 10 -19 l30 -27 -32
16 c-43 20 -70 21 -53 0 12 -14 6 -35 -10 -35 -5 0 -22 11 -38 25 -17 14 -38
25 -48 25 -17 0 -16 -1 2 -16 18 -15 18 -15 -11 -9 -45 10 -19 -9 42 -30 43
-15 57 -16 78 -7 32 15 45 15 45 2 0 -5 -9 -10 -20 -10 -25 0 -80 -56 -80 -81
0 -11 -4 -19 -10 -19 -5 0 -10 7 -10 15 0 8 -9 15 -21 15 -11 0 -18 4 -15 8 6
10 -56 42 -79 42 -8 0 -15 3 -15 8 0 4 -17 16 -37 27 -21 11 -44 26 -51 32 -7
7 -27 13 -43 13 -17 0 -36 8 -46 20 -10 11 -23 20 -29 20 -6 0 -17 7 -24 15
-18 21 2 19 50 -5 22 -11 52 -20 68 -20 16 0 49 -7 72 -15 54 -19 81 -19 74
-1 -5 14 33 26 83 26 13 0 43 10 66 22 81 41 121 46 173 22z m-607 -19 c-2 -2
-17 -5 -34 -8 -49 -8 -67 -18 -60 -34 4 -11 1 -13 -11 -9 -8 3 -28 6 -42 7
-44 1 63 47 111 47 21 1 38 -1 36 -3z m-7029 -9 c0 -3 -4 -8 -10 -11 -5 -3
-10 -1 -10 4 0 6 5 11 10 11 6 0 10 -2 10 -4z m410 -71 c0 -13 -10 -30 -25
-39 -28 -19 -34 -10 -7 10 16 13 16 13 0 14 -21 0 -25 36 -5 43 21 7 37 -4 37
-28z m117 5 c-1 -12 -5 -16 -10 -11 -5 5 -6 14 -3 20 11 16 15 13 13 -9z
m7530 -2 c-3 -8 -6 -5 -6 6 -1 11 2 17 5 13 3 -3 4 -12 1 -19z m-22 -28 c-3
-6 -2 -10 4 -10 5 0 13 5 16 10 11 18 64 11 75 -10 8 -16 8 -20 -4 -20 -8 0
-16 6 -19 13 -4 10 -7 10 -18 0 -10 -10 -10 -13 0 -13 15 0 11 -42 -5 -47 -6
-2 -16 8 -23 23 -11 25 -26 26 -26 1 0 -7 -11 -11 -23 -9 -14 2 -30 -4 -38
-15 -14 -16 -14 -15 -8 17 6 31 5 33 -10 21 -9 -7 -16 -21 -16 -30 0 -13 -12
-16 -65 -17 -47 0 -65 3 -65 12 0 24 113 67 149 57 28 -7 61 14 61 40 1 20 2
20 11 4 5 -9 7 -22 4 -27z m-217 -30 c-9 -6 -22 -27 -29 -48 -7 -20 -14 -31
-17 -24 -3 9 -8 10 -17 2 -6 -5 -26 -12 -42 -14 -17 -2 -44 -12 -59 -23 -16
-11 -52 -23 -79 -27 -49 -6 -52 -5 -89 33 -35 35 -36 39 -21 55 37 37 79 45
170 33 30 -4 74 -2 110 7 77 17 96 19 73 6z m-918 -43 c0 -18 7 -42 15 -53 8
-12 11 -24 8 -28 -15 -14 -96 -4 -222 30 -129 34 -136 35 -148 17 -19 -26 -3
-35 119 -67 57 -15 131 -37 166 -48 62 -22 66 -22 325 -9 259 12 263 12 320
-9 31 -12 59 -25 62 -30 3 -5 13 -7 23 -4 12 4 13 3 4 -3 -9 -7 -10 -17 -4
-34 8 -21 6 -26 -22 -39 -26 -13 -31 -21 -30 -48 l2 -32 -218 0 -218 0 -55 69
c-51 62 -60 69 -97 73 -49 4 -54 1 -35 -25 18 -25 4 -47 -30 -47 -30 0 -55
-10 -55 -21 0 -5 33 -9 73 -9 65 -1 74 -3 90 -25 17 -24 17 -24 -15 -29 -67
-10 -224 -15 -263 -8 l-40 8 48 18 47 19 -33 41 c-19 22 -64 82 -102 131 -38
50 -79 101 -92 114 -41 42 -32 49 85 56 87 5 188 14 280 24 7 0 12 -12 12 -32z
m-6872 -50 c2 -10 -3 -17 -12 -17 -18 0 -29 16 -21 31 9 14 29 6 33 -14z
m6567 3 c13 -6 15 -9 5 -9 -8 0 -22 4 -30 9 -18 12 -2 12 25 0z m-87 -95 c-11
-25 -55 -42 -70 -27 -6 6 4 19 28 36 43 29 58 26 42 -9z m1124 -22 c14 9 24 8
45 -5 16 -9 29 -23 31 -31 3 -12 -4 -14 -33 -7 -51 12 -95 31 -95 42 0 5 7 5
17 0 11 -7 23 -6 35 1z m121 -10 c-7 -2 -19 -2 -25 0 -7 3 -2 5 12 5 14 0 19
-2 13 -5z m161 -84 l41 -43 -38 32 c-41 35 -68 43 -46 15 11 -15 11 -16 -1 -5
-17 15 -47 16 -52 1 -3 -10 -98 36 -98 48 0 3 34 3 76 0 75 -5 78 -7 118 -48z
m-866 -165 c32 -14 68 -15 260 -9 l222 7 0 -25 c0 -19 7 -28 31 -36 26 -9 29
-13 20 -30 -6 -11 -23 -21 -38 -23 -50 -6 82 -49 182 -59 49 -5 112 -16 140
-23 27 -8 88 -22 135 -31 47 -9 101 -24 120 -33 35 -16 34 -16 -95 -23 -71 -4
-262 -8 -423 -9 l-294 -3 -83 83 c-47 47 -89 80 -96 78 -8 -3 -31 3 -51 13
-21 11 -43 19 -49 19 -7 0 -23 10 -36 22 -29 27 -41 17 -19 -17 9 -13 15 -26
14 -27 -6 -10 28 -51 55 -64 18 -10 48 -30 67 -45 19 -16 69 -45 110 -66 46
-24 74 -44 72 -52 -3 -12 54 -13 365 -7 460 8 557 14 542 32 -15 18 1 18 74
-1 32 -8 81 -15 110 -16 49 -1 50 -1 17 -9 -19 -4 -287 -13 -595 -19 -308 -6
-585 -14 -615 -17 l-55 -5 -67 83 c-36 46 -110 136 -162 200 -53 65 -96 120
-96 123 0 3 45 5 100 5 70 0 112 -5 138 -16z m2440 -486 c-3 -7 -17 -50 -32
-95 -15 -46 -32 -83 -37 -83 -12 0 -12 -1 16 87 34 106 33 103 46 103 6 0 9
-6 7 -12z m-129 -152 c-2 -2 -29 -6 -59 -9 -36 -4 -46 -3 -30 3 25 8 97 13 89
6z m350 -142 l26 -15 -27 5 c-15 4 -28 1 -30 -5 -3 -9 -10 -9 -26 0 -17 9 -22
9 -20 0 5 -22 -30 -21 -51 0 -13 13 -27 18 -38 14 -12 -4 -15 -3 -8 5 24 25
127 23 174 -4z m-609 -59 c0 -8 14 -30 30 -48 17 -19 30 -46 30 -59 0 -17 16
-40 50 -71 28 -25 50 -50 50 -55 0 -5 -11 -15 -25 -22 -14 -7 -25 -21 -25 -30
0 -17 66 -70 86 -70 6 0 23 -13 38 -29 20 -21 24 -30 14 -34 -9 -3 -7 -7 7
-13 11 -4 25 -13 32 -18 27 -23 38 -31 48 -31 6 0 30 -10 55 -22 25 -12 68
-24 95 -28 28 -4 77 -15 110 -25 33 -10 93 -23 134 -29 40 -6 112 -24 160 -40
92 -30 206 -57 284 -67 26 -4 47 -10 47 -14 0 -9 -127 -27 -325 -45 -88 -8
-225 -22 -305 -30 -80 -8 -221 -22 -315 -30 l-170 -15 -60 37 c-89 54 -198
140 -308 241 -57 53 -109 93 -126 97 -16 3 -37 15 -47 27 -38 42 -322 233
-332 223 -2 -2 2 -13 8 -25 11 -20 10 -21 -24 -14 -45 8 -57 -14 -32 -57 9
-16 14 -34 11 -39 -3 -6 1 -10 10 -10 15 0 121 -68 153 -97 7 -7 17 -13 21
-13 4 0 16 -8 27 -17 11 -10 40 -36 64 -58 25 -22 44 -43 43 -47 -2 -5 4 -8
13 -8 9 0 12 -5 8 -12 -4 -7 -3 -8 4 -4 6 4 20 -2 32 -14 11 -11 25 -20 30
-20 6 0 10 -4 10 -10 0 -5 7 -10 16 -10 8 0 30 -11 48 -25 18 -14 38 -25 44
-25 6 0 19 -9 29 -19 10 -11 29 -21 43 -23 14 -2 24 -8 23 -14 -1 -5 8 -11 20
-11 12 -1 28 -10 35 -20 7 -10 16 -17 20 -17 18 4 52 -17 52 -32 0 -10 5 -14
15 -11 8 4 17 2 20 -3 4 -6 1 -10 -5 -10 -6 0 -9 -4 -5 -9 8 -15 -15 -25 -28
-12 -16 16 -37 14 -37 -3 0 -8 -9 -14 -19 -13 -15 1 -17 5 -10 18 7 14 4 19
-11 24 -11 3 -20 10 -20 15 0 5 -7 7 -15 3 -10 -3 -15 0 -13 8 2 8 -7 15 -19
17 -13 2 -23 8 -23 13 0 6 5 7 10 4 6 -3 10 2 10 13 0 11 -12 25 -27 32 -35
18 -54 19 -72 6 -11 -8 -13 -8 -7 2 10 17 -2 32 -20 25 -11 -4 -12 -8 -3 -19
16 -19 9 -24 -20 -13 -15 6 -21 14 -17 25 3 8 2 13 -3 10 -5 -3 -21 7 -37 22
-15 15 -24 21 -20 15 4 -7 4 -13 -1 -14 -39 -4 -51 -7 -68 -18 -17 -11 -17
-12 -2 -7 12 4 17 2 14 -6 -2 -7 -9 -12 -14 -11 -13 2 -14 -39 -1 -54 6 -8 8
-16 4 -20 -3 -3 -6 0 -6 8 0 12 -2 11 -11 -1 -9 -12 -10 -12 -5 4 5 13 2 17
-9 13 -9 -4 -30 10 -55 35 -31 32 -37 44 -29 54 9 11 7 15 -5 19 -47 15 -51
19 -23 23 19 2 27 9 27 23 0 10 -5 19 -11 19 -5 0 -7 5 -4 10 3 6 1 10 -4 10
-6 0 -11 -4 -11 -10 0 -5 -6 -10 -14 -10 -8 0 -16 -5 -18 -11 -5 -14 -251 247
-401 426 -37 44 -89 103 -117 130 -27 28 -50 53 -50 58 0 4 10 8 23 8 63 4
698 15 945 17 242 2 282 0 282 -13z m495 -51 c26 -10 -3 -24 -50 -23 l-40 0
30 14 c36 16 39 17 60 9z m-132 -31 c-13 -2 -35 -2 -50 0 -16 2 -5 4 22 4 28
0 40 -2 28 -4z m409 -17 c10 -7 15 -16 12 -19 -7 -7 -44 14 -44 25 0 12 13 9
32 -6z m152 -91 c19 -14 19 -15 -6 -15 -14 0 -28 7 -32 15 -7 19 13 19 38 0z
m-1164 -617 c0 -12 -6 -9 -26 13 -19 22 -19 22 4 8 12 -8 22 -17 22 -21z m900
-67 c0 -6 -4 -13 -10 -16 -5 -3 -10 1 -10 9 0 9 5 16 10 16 6 0 10 -4 10 -9z
m90 -11 c0 -4 -13 -10 -29 -12 -20 -3 -27 0 -24 8 5 13 53 16 53 4z m50 2 c0
-5 -7 -9 -15 -9 -8 0 -12 4 -9 9 3 4 9 8 15 8 5 0 9 -4 9 -8z m-360 -17 c11
-13 10 -14 -4 -9 -9 3 -16 10 -16 15 0 13 6 11 20 -6z m-503 -10 c-4 -8 -1
-17 5 -21 6 -4 8 -3 4 4 -10 16 14 27 64 28 36 1 100 -17 100 -29 0 -7 -88 2
-112 11 -24 10 -29 9 -38 -8 -6 -11 -8 -21 -5 -21 3 -1 10 -3 15 -4 6 -1 15
-3 21 -4 18 -2 4 -26 -14 -25 -43 3 -52 6 -40 11 10 4 10 10 -2 26 -18 25 -19
47 -4 47 6 0 9 -7 6 -15z m717 -14 c3 -5 -2 -15 -12 -22 -15 -12 -16 -12 -5 2
7 9 10 19 6 22 -3 4 -4 7 0 7 3 0 8 -4 11 -9z m-597 -43 c-3 -8 -6 -5 -6 6 -1
11 2 17 5 13 3 -3 4 -12 1 -19z m-137 8 c0 -2 -9 -6 -20 -9 -11 -3 -20 -1 -20
4 0 5 9 9 20 9 11 0 20 -2 20 -4z m-14 -83 c-10 -10 -46 -11 -52 -1 -3 4 9 8
27 8 18 0 29 -3 25 -7z m24 -13 c-6 -11 -13 -20 -16 -20 -2 0 0 9 6 20 6 11
13 20 16 20 2 0 0 -9 -6 -20z m105 10 c-7 -11 -55 -9 -55 2 0 4 14 8 31 8 17
0 28 -4 24 -10z m-71 -39 c3 -5 -2 -15 -11 -22 -14 -12 -16 -12 -8 0 6 11 4
13 -11 8 -18 -7 -18 -7 0 8 23 18 23 18 30 6z m-224 -17 c0 -14 -3 -14 -15 -4
-8 7 -15 14 -15 16 0 2 7 4 15 4 8 0 15 -7 15 -16z m347 -169 c0 -8 -4 -12 -9
-9 -5 3 -6 10 -3 15 9 13 12 11 12 -6z"/>
<path d="M10906 5612 c-6 -10 30 -9 40 1 4 4 -2 7 -14 7 -11 0 -23 -4 -26 -8z"/>
<path d="M10810 5561 c0 -6 4 -13 10 -16 6 -3 7 1 4 9 -7 18 -14 21 -14 7z"/>
<path d="M10036 5462 c-3 -4 9 -7 26 -6 22 2 32 -3 35 -17 3 -10 9 -16 14 -13
5 3 7 10 4 15 -4 5 0 9 7 9 9 0 9 3 -2 10 -18 12 -77 13 -84 2z"/>
<path d="M10164 5441 c4 -7 -2 -14 -15 -19 -17 -7 -19 -10 -7 -14 19 -8 43 28
26 38 -7 4 -8 3 -4 -5z"/>
<path d="M10445 5429 c7 -11 35 -12 35 -1 0 4 -9 8 -20 9 -11 1 -18 -2 -15 -8z"/>
<path d="M10335 5300 c-3 -5 -1 -10 4 -10 6 0 11 5 11 10 0 6 -2 10 -4 10 -3
0 -8 -4 -11 -10z"/>
<path d="M10480 5280 c0 -5 7 -10 15 -10 8 0 15 5 15 10 0 6 -7 10 -15 10 -8
0 -15 -4 -15 -10z"/>
<path d="M10980 5186 c0 -14 34 -28 44 -18 6 5 -24 31 -36 32 -5 0 -8 -6 -8
-14z"/>
<path d="M10840 5122 c0 -10 69 -36 77 -29 9 10 -7 26 -22 21 -7 -3 -23 -1
-34 6 -12 6 -21 7 -21 2z"/>
<path d="M10605 5030 c-27 -5 -28 -6 -9 -12 12 -3 28 -2 35 3 20 12 8 16 -26
9z"/>
<path d="M10574 4975 c-18 -15 -18 -15 5 -13 14 2 26 9 29 16 5 17 -10 15 -34
-3z"/>
<path d="M10446 4908 c3 -4 9 -8 15 -8 5 0 9 4 9 8 0 5 -7 9 -15 9 -8 0 -12
-4 -9 -9z"/>
<path d="M10440 4835 c0 -9 6 -12 17 -8 12 5 14 3 8 -7 -5 -8 -4 -11 3 -6 15
9 4 36 -14 36 -8 0 -14 -7 -14 -15z"/>
<path d="M5945 4740 c3 -5 8 -10 11 -10 2 0 4 5 4 10 0 6 -5 10 -11 10 -5 0
-7 -4 -4 -10z"/>
<path d="M10316 4703 c-6 -14 -5 -15 5 -6 7 7 10 15 7 18 -3 3 -9 -2 -12 -12z"/>
<path d="M10355 4690 c-3 -6 1 -7 9 -4 18 7 21 14 7 14 -6 0 -13 -4 -16 -10z"/>
<path d="M9430 4470 c-12 -8 -10 -10 8 -10 13 0 20 4 17 10 -7 12 -6 12 -25 0z"/>
<path d="M9505 4450 c3 -5 8 -10 11 -10 2 0 4 5 4 10 0 6 -5 10 -11 10 -5 0
-7 -4 -4 -10z"/>
<path d="M9390 4429 c0 -4 4 -10 9 -14 6 -3 8 -14 6 -25 -2 -12 0 -18 6 -15 5
4 9 14 9 23 0 13 2 14 9 4 7 -11 10 -10 15 3 9 23 9 22 -24 27 -16 3 -30 1
-30 -3z"/>
<path d="M9457 4411 c-3 -12 -1 -21 3 -21 14 0 19 15 11 29 -6 9 -10 7 -14 -8z"/>
<path d="M9428 4363 c6 -2 9 -10 6 -15 -4 -7 -2 -8 4 -4 18 11 14 26 -5 25
-11 0 -13 -3 -5 -6z"/>
<path d="M6650 4236 c0 -8 4 -17 9 -20 5 -4 7 3 4 14 -6 23 -13 26 -13 6z"/>
<path d="M7535 4241 c-3 -5 -1 -13 5 -16 8 -5 8 -11 0 -20 -8 -9 -8 -15 0 -20
5 -3 10 1 10 10 0 9 5 13 10 10 6 -3 10 -2 10 3 0 6 -7 13 -16 16 -8 3 -12 10
-9 16 3 5 4 10 1 10 -3 0 -7 -4 -11 -9z"/>
<path d="M7470 4210 c0 -5 5 -10 11 -10 5 0 7 5 4 10 -3 6 -8 10 -11 10 -2 0
-4 -4 -4 -10z"/>
<path d="M7221 4192 c-6 -2 -11 -8 -11 -14 0 -9 38 -2 52 11 8 7 -22 9 -41 3z"/>
<path d="M7160 4140 c0 -5 5 -10 11 -10 5 0 7 5 4 10 -3 6 -8 10 -11 10 -2 0
-4 -4 -4 -10z"/>
<path d="M10093 4155 c-45 -19 -41 -23 11 -11 25 6 42 14 40 18 -7 11 -13 10
-51 -7z"/>
<path d="M9990 3961 c-11 -8 -3 -11 33 -11 27 0 66 -9 89 -20 48 -23 48 -23
48 -10 0 28 -140 61 -170 41z"/>
<path d="M10038 3813 c6 -2 18 -2 25 0 6 3 1 5 -13 5 -14 0 -19 -2 -12 -5z"/>
<path d="M430 2809 c0 -5 5 -7 10 -4 6 3 10 8 10 11 0 2 -4 4 -10 4 -5 0 -10
-5 -10 -11z"/>
<path d="M7581 2717 c-27 -13 -40 -37 -21 -37 7 0 25 11 42 25 31 26 20 33
-21 12z"/>
<path d="M6818 2373 c7 -3 16 -2 19 1 4 3 -2 6 -13 5 -11 0 -14 -3 -6 -6z"/>
<path d="M8300 1430 c0 -5 5 -10 11 -10 5 0 7 5 4 10 -3 6 -8 10 -11 10 -2 0
-4 -4 -4 -10z"/>
<path d="M8928 1303 c7 -3 16 -2 19 1 4 3 -2 6 -13 5 -11 0 -14 -3 -6 -6z"/>
<path d="M9405 990 c3 -5 8 -10 11 -10 2 0 4 5 4 10 0 6 -5 10 -11 10 -5 0 -7
-4 -4 -10z"/>
<path d="M135 7213 c0 -21 7 -31 29 -40 33 -15 66 -17 66 -4 0 20 -13 41 -25
41 -7 0 -18 7 -25 15 -21 25 -46 19 -45 -12z"/>
<path d="M0 7147 c0 -26 4 -37 15 -37 8 0 23 -4 33 -9 42 -21 94 -41 108 -41
19 0 15 30 -6 40 -89 42 -118 57 -132 69 -17 13 -18 11 -18 -22z"/>
<path d="M290 7126 c0 -13 99 -65 270 -143 30 -14 72 -34 92 -44 25 -14 39
-16 43 -8 10 15 -9 32 -41 35 -15 2 -30 7 -33 11 -12 16 -302 163 -322 163 -5
0 -9 -6 -9 -14z"/>
<path d="M194 7067 c-9 -25 0 -51 19 -55 12 -3 17 3 17 21 0 31 -27 57 -36 34z"/>
<path d="M250 7033 c0 -5 7 -16 15 -27 18 -24 39 -12 25 15 -10 18 -40 27 -40
12z"/>
<path d="M310 7005 c0 -8 4 -15 10 -15 5 0 7 7 4 15 -4 8 -8 15 -10 15 -2 0
-4 -7 -4 -15z"/>
<path d="M130 6971 c0 -22 41 -51 110 -79 41 -17 92 -38 112 -46 23 -10 39
-12 43 -6 3 5 -54 39 -126 75 -146 71 -139 69 -139 56z"/>
<path d="M377 6960 c7 -25 29 -44 43 -35 16 10 12 42 -6 49 -30 11 -42 7 -37
-14z"/>
<path d="M0 6846 l0 -104 53 -21 c237 -99 244 -103 227 -130 -15 -25 -209 55
-211 87 -1 9 -5 1 -10 -18 -9 -38 0 -581 10 -592 3 -4 6 9 7 28 1 47 10 52 38
21 14 -15 33 -27 43 -27 10 0 46 -9 79 -21 l62 -22 7 -110 c4 -60 3 -113 -2
-118 -7 -7 -198 43 -211 56 -3 2 -7 28 -10 57 -9 99 -21 16 -21 -154 0 -183 5
-228 26 -228 8 0 72 -14 143 -31 l130 -31 0 -144 c0 -169 18 -155 -160 -120
-112 22 -115 23 -115 49 -1 48 -12 39 -19 -15 -3 -29 -2 -69 2 -88 l8 -35 95
-16 c53 -9 122 -19 153 -23 l57 -6 -6 790 -7 790 31 -6 c29 -6 31 -5 31 25 0
52 -48 89 -215 166 -82 38 -161 75 -175 82 -14 7 -28 13 -32 13 -5 0 -8 -47
-8 -104z m55 6 c-3 -3 -11 0 -18 7 -9 10 -8 11 6 5 10 -3 15 -9 12 -12z m172
-68 c32 -14 77 -35 101 -45 24 -10 41 -23 38 -28 -3 -5 -37 6 -75 25 -38 19
-73 34 -78 34 -10 1 -61 39 -51 40 4 0 33 -12 65 -26z"/>
<path d="M487 6923 c-12 -20 16 -51 69 -77 33 -16 72 -38 87 -49 31 -21 32
-21 41 10 8 24 -22 63 -49 63 -8 0 -43 14 -77 30 -70 34 -65 33 -71 23z"/>
<path d="M538 6784 c-3 -3 -4 -14 -1 -24 3 -13 31 -30 82 -50 42 -17 88 -37
102 -45 25 -14 39 -11 39 6 0 11 -170 90 -180 84 -4 -3 -10 4 -13 15 -5 19
-18 26 -29 14z"/>
<path d="M514 6668 c3 -13 6 -26 6 -30 0 -5 4 -8 9 -8 7 0 8 19 2 53 0 4 -6 7
-12 7 -7 0 -9 -9 -5 -22z"/>
<path d="M790 6645 c0 -16 6 -25 16 -25 11 0 14 5 10 16 -3 9 -6 20 -6 25 0 5
-4 9 -10 9 -5 0 -10 -11 -10 -25z"/>
<path d="M569 6634 c9 -35 47 -51 60 -25 10 18 6 31 -11 31 -4 0 -8 -7 -8 -17
0 -21 -11 -11 -14 14 -2 10 -10 19 -19 21 -12 3 -14 -2 -8 -24z"/>
<path d="M827 6653 c-2 -4 0 -19 6 -33 l10 -25 5 24 c4 24 -12 50 -21 34z"/>
<path d="M640 6610 c-11 -20 0 -33 37 -44 16 -5 23 -2 26 11 4 14 5 13 6 -5 0
-12 9 -25 19 -28 9 -3 25 -10 34 -15 26 -13 28 -12 28 16 0 15 -7 28 -17 32
-10 3 -42 16 -70 29 -51 22 -53 22 -63 4z"/>
<path d="M1583 6458 c2 -7 10 -13 17 -13 7 0 15 6 18 13 2 7 -5 12 -18 12 -13
0 -20 -5 -17 -12z"/>
<path d="M1554 6395 c5 -13 2 -14 -15 -5 -11 6 -25 10 -31 8 -6 -2 8 -11 31
-20 23 -9 43 -12 47 -7 3 5 0 9 -6 9 -7 0 -10 7 -6 15 3 9 0 15 -10 15 -10 0
-14 -6 -10 -15z"/>
<path d="M570 6388 c24 -11 24 -12 3 -15 -16 -3 -21 -10 -19 -31 1 -15 6 -28
11 -29 6 -1 9 5 7 13 -2 8 1 14 6 14 5 0 12 10 15 22 6 23 -7 38 -33 37 -8 0
-4 -5 10 -11z"/>
<path d="M640 6350 c0 -5 7 -10 15 -10 8 0 15 -6 15 -14 0 -20 -17 -29 -24
-14 -3 7 -4 0 -3 -17 2 -24 7 -30 27 -32 14 -1 20 0 13 3 -7 3 -9 18 -6 39 4
27 1 35 -16 44 -14 8 -21 8 -21 1z"/>
<path d="M717 6304 c-3 -4 -2 -16 4 -27 8 -14 8 -18 0 -13 -6 4 -11 0 -11 -10
0 -11 6 -15 20 -11 11 3 23 1 26 -4 9 -16 26 -10 20 7 -4 10 -1 14 6 11 7 -2
13 -13 13 -24 0 -12 3 -25 8 -29 4 -4 7 -2 7 5 0 7 5 9 10 6 6 -3 10 -2 10 4
0 5 -6 12 -12 14 -10 4 -9 8 2 16 12 8 11 11 -5 16 -11 4 -29 11 -40 17 -14 8
-20 7 -23 -2 -3 -9 -9 -5 -16 9 -7 12 -15 19 -19 15z"/>
<path d="M557 6279 c7 -7 15 -10 18 -7 3 3 -2 9 -12 12 -14 6 -15 5 -6 -5z"/>
<path d="M866 6268 c4 -13 7 -33 8 -46 1 -12 5 -21 11 -20 21 6 7 88 -15 88
-7 0 -9 -9 -4 -22z"/>
<path d="M904 6210 c0 -19 18 -30 64 -39 4 -1 0 -5 -8 -11 -8 -5 -11 -12 -7
-17 10 -9 27 16 27 39 0 10 -13 24 -30 33 -38 20 -46 19 -46 -5z"/>
<path d="M1001 6205 c0 -11 2 -30 5 -42 5 -18 9 -20 19 -10 17 17 29 57 17 57
-6 0 -13 -8 -17 -17 -7 -16 -9 -15 -15 7 -7 20 -8 21 -9 5z"/>
<path d="M1115 6200 c3 -5 15 -10 26 -10 22 0 27 -35 7 -43 -8 -4 -7 -6 3 -6
24 -1 30 35 10 53 -19 18 -56 22 -46 6z"/>
<path d="M1049 6170 c-1 -11 -2 -25 -3 -32 -1 -6 5 -13 13 -16 10 -3 13 2 9
22 -4 21 -3 24 8 15 7 -6 10 -17 7 -25 -3 -8 0 -14 6 -14 23 0 11 47 -14 58
-22 10 -25 9 -26 -8z"/>
<path d="M1110 6165 c0 -32 24 -66 44 -63 12 2 20 8 18 13 -2 6 -10 9 -17 7
-16 -3 -39 34 -30 48 3 6 1 10 -4 10 -6 0 -11 -7 -11 -15z"/>
<path d="M96 6081 c-4 -5 2 -14 11 -20 17 -10 17 -10 1 -11 -29 0 -21 -20 15
-35 l32 -14 -27 -1 c-48 0 -33 -27 26 -44 99 -29 100 -28 102 32 2 58 -3 64
-72 81 -22 5 -49 13 -60 16 -12 4 -25 2 -28 -4z m61 -37 c-3 -3 -12 -4 -19 -1
-8 3 -5 6 6 6 11 1 17 -2 13 -5z"/>
<path d="M560 6074 c0 -8 5 -12 10 -9 6 3 10 10 10 16 0 5 -4 9 -10 9 -5 0
-10 -7 -10 -16z"/>
<path d="M1170 6071 c0 -11 4 -21 9 -21 18 0 21 18 6 30 -13 10 -15 9 -15 -9z"/>
<path d="M1250 6065 c0 -17 -2 -17 -10 -5 -14 21 -13 -5 0 -31 11 -20 50 -27
50 -8 0 5 5 7 11 4 6 -4 8 -10 4 -13 -4 -4 78 -42 93 -42 1 0 2 9 2 21 0 19
-43 45 -90 54 -8 2 -16 4 -17 5 -2 2 -8 3 -13 4 -6 0 -15 8 -20 16 -8 12 -10
12 -10 -5z"/>
<path d="M65 6040 c3 -5 8 -10 11 -10 2 0 4 5 4 10 0 6 -5 10 -11 10 -5 0 -7
-4 -4 -10z"/>
<path d="M610 6015 c0 -15 7 -28 17 -32 15 -6 15 -7 -3 -14 -17 -7 -17 -8 -1
-8 11 -1 17 -10 18 -28 1 -23 3 -20 9 11 5 26 3 47 -7 67 -18 36 -33 37 -33 4z"/>
<path d="M71 6004 c0 -11 3 -14 6 -6 3 7 2 16 -1 19 -3 4 -6 -2 -5 -13z"/>
<path d="M680 5981 c0 -20 36 -48 47 -37 4 3 11 1 18 -4 8 -7 11 -4 10 10 -2
26 -13 36 -47 44 -23 5 -28 3 -28 -13z"/>
<path d="M561 5943 c-1 -24 -6 -33 -18 -33 -16 -1 -16 -2 2 -16 13 -10 16 -17
9 -22 -17 -11 -15 -69 3 -76 13 -5 15 -17 10 -63 -3 -31 -10 -59 -14 -62 -13
-9 -9 -101 5 -109 8 -6 12 -77 15 -262 1 -140 3 -60 4 178 0 239 -3 448 -7
465 l-8 32 -1 -32z"/>
<path d="M782 5925 c-1 -19 3 -35 8 -35 12 0 13 40 1 58 -5 8 -8 0 -9 -23z"/>
<path d="M1267 5943 c-4 -3 -7 -15 -7 -25 0 -23 29 -36 41 -17 7 11 9 11 9 -3
0 -9 13 -21 31 -27 42 -15 41 -15 37 17 -2 21 -8 27 -28 27 -14 0 -30 7 -37
15 -7 8 -13 11 -13 6 0 -5 -6 -3 -13 3 -8 6 -17 8 -20 4z m90 -55 c-3 -8 -6
-5 -6 6 -1 11 2 17 5 13 3 -3 4 -12 1 -19z"/>
<path d="M130 5906 c0 -15 21 -26 51 -26 27 0 23 19 -7 30 -34 13 -44 13 -44
-4z"/>
<path d="M740 5905 c0 -8 2 -15 4 -15 2 0 6 7 10 15 3 8 1 15 -4 15 -6 0 -10
-7 -10 -15z"/>
<path d="M641 5884 c0 -11 3 -14 6 -6 3 7 2 16 -1 19 -3 4 -6 -2 -5 -13z"/>
<path d="M642 5840 c0 -14 2 -19 5 -12 2 6 2 18 0 25 -3 6 -5 1 -5 -13z"/>
<path d="M1100 5842 c0 -5 45 -22 100 -37 l100 -27 0 -79 c0 -46 4 -79 10 -79
6 0 9 30 9 71 -1 38 1 72 3 75 3 2 44 -9 91 -25 48 -17 87 -26 87 -21 0 5 -43
23 -95 40 -92 31 -95 32 -96 63 -2 31 -2 31 -6 5 -2 -16 -10 -28 -16 -28 -11
0 -107 26 -166 45 -12 3 -21 2 -21 -3z"/>
<path d="M643 5730 c0 -47 2 -66 4 -42 2 23 2 61 0 85 -2 23 -4 4 -4 -43z"/>
<path d="M1137 5764 c-4 -20 1 -27 21 -35 18 -7 28 -6 35 3 5 9 7 2 3 -19 -4
-22 -1 -33 10 -37 28 -11 34 -7 34 22 0 24 -19 71 -20 48 0 -5 -6 -4 -12 1 -7
5 -23 8 -35 7 -16 -1 -20 4 -18 17 2 11 0 19 -4 19 -5 0 -11 -12 -14 -26z m93
-65 c0 -11 -4 -18 -9 -14 -6 3 -9 14 -8 25 2 24 17 15 17 -11z"/>
<path d="M1110 5759 c0 -11 5 -17 10 -14 6 3 10 13 10 21 0 8 -4 14 -10 14 -5
0 -10 -9 -10 -21z"/>
<path d="M1269 5736 c-1 -3 -2 -9 -3 -13 -1 -5 -5 -14 -10 -21 -5 -8 -4 -18 3
-25 8 -8 11 -6 11 6 0 9 5 17 10 17 6 0 10 6 10 14 0 14 -19 33 -21 22z"/>
<path d="M1330 5725 c0 -8 5 -15 10 -15 6 0 10 -11 10 -25 0 -15 6 -25 14 -25
11 0 10 8 -5 40 -21 42 -29 50 -29 25z"/>
<path d="M1371 5712 c-1 -24 26 -72 39 -72 5 0 11 8 13 18 4 13 5 11 6 -5 1
-20 11 -27 33 -25 3 1 9 -6 12 -14 4 -12 2 -15 -9 -10 -8 3 -15 1 -15 -3 0 -8
23 -21 36 -21 2 0 4 13 4 28 0 20 -7 33 -24 42 -14 7 -27 23 -30 36 -4 13 -13
24 -22 24 -8 0 -12 -4 -9 -10 3 -5 2 -10 -3 -10 -5 0 -14 10 -20 23 l-11 22 0
-23z"/>
<path d="M1770 5690 c0 -5 5 -10 11 -10 5 0 7 5 4 10 -3 6 -8 10 -11 10 -2 0
-4 -4 -4 -10z"/>
<path d="M1506 5654 c-4 -15 -6 -27 -4 -28 43 -26 108 -52 108 -43 -1 27 -28
49 -52 42 -17 -5 -19 -4 -8 4 8 5 11 13 7 17 -3 4 -13 1 -22 -6 -12 -10 -15
-10 -15 4 0 9 5 16 11 16 5 0 7 5 4 10 -11 17 -23 11 -29 -16z"/>
<path d="M1600 5653 c1 -28 25 -53 51 -52 23 1 23 1 -3 11 -16 5 -28 14 -28
19 0 6 5 7 10 4 14 -9 13 8 -2 23 -17 17 -28 15 -28 -5z"/>
<path d="M1067 5643 c-32 -5 -88 -62 -130 -131 -28 -49 -80 -201 -81 -238 0
-13 -5 -20 -12 -17 -6 2 -14 -6 -18 -19 -9 -37 -7 -43 8 -22 15 20 19 17 29
-31 3 -11 5 3 6 31 3 131 56 276 130 357 l41 45 58 -23 c31 -13 92 -31 134
-40 75 -16 77 -18 72 -43 -2 -15 0 -40 5 -57 8 -27 9 -25 10 24 l1 54 31 -7
c17 -3 40 -6 50 -6 11 0 27 -9 36 -20 20 -24 33 -26 33 -6 0 8 -15 25 -32 38
-18 12 -40 30 -50 40 -9 9 -60 30 -112 47 -90 29 -138 34 -209 24z m183 -31
c35 -11 56 -24 58 -35 2 -10 -3 -17 -13 -17 -34 0 -224 53 -219 61 9 15 115 9
174 -9z m121 -52 c13 -10 19 -19 12 -20 -21 0 -63 19 -63 30 0 16 26 12 51
-10z"/>
<path d="M1410 5615 c0 -8 7 -15 15 -15 9 0 12 6 9 15 -4 8 -10 15 -15 15 -5
0 -9 -7 -9 -15z"/>
<path d="M1640 5582 c0 -4 5 -14 11 -22 8 -11 12 -12 16 -3 9 23 8 26 -9 29
-10 1 -18 -1 -18 -4z"/>
<path d="M1790 5570 c0 -5 2 -10 5 -10 21 0 172 -44 180 -52 10 -10 -23 -6
-58 8 -18 7 -24 -16 -21 -82 l3 -52 -47 12 -47 12 -1 55 c-1 42 0 45 3 12 4
-41 5 -43 39 -43 27 0 34 4 34 20 0 11 -4 20 -10 20 -5 0 -9 3 -8 8 2 10 -20
62 -27 62 -4 0 -3 -4 0 -10 3 -5 -3 -10 -14 -10 -14 0 -19 5 -15 15 4 8 1 15
-5 15 -18 0 -18 -137 0 -155 5 -5 31 -15 57 -22 26 -6 73 -18 105 -26 47 -13
57 -13 57 -2 0 9 -19 16 -54 20 -48 6 -53 9 -53 32 0 18 3 23 16 17 9 -3 21
-7 28 -7 7 0 10 -4 8 -8 -3 -3 2 -12 11 -19 13 -11 15 -9 13 21 -3 33 -4 34
-41 32 -37 -2 -38 -1 -38 32 0 34 1 34 28 23 15 -7 31 -15 37 -20 14 -12 25
-10 25 7 0 8 -4 15 -9 15 -5 0 -8 11 -5 24 3 20 -2 28 -27 40 -37 19 -56 20
-61 6 -2 -7 -19 -5 -47 5 -51 18 -61 19 -61 5z m55 -89 c-3 -6 3 -14 12 -20
21 -11 11 -26 -12 -18 -17 7 -21 47 -4 47 5 0 8 -4 4 -9z"/>
<path d="M1110 5535 c0 -15 6 -25 14 -25 8 0 21 -3 30 -6 12 -5 16 0 16 19 0
24 -16 37 -46 37 -8 0 -14 -10 -14 -25z"/>
<path d="M90 5513 c0 -11 94 -40 145 -45 21 -2 30 2 33 13 3 17 -14 22 -125
35 -33 4 -53 3 -53 -3z"/>
<path d="M1340 5506 c0 -2 7 -6 15 -10 8 -3 15 -1 15 4 0 6 -7 10 -15 10 -8 0
-15 -2 -15 -4z"/>
<path d="M652 5470 c0 -14 2 -19 5 -12 2 6 2 18 0 25 -3 6 -5 1 -5 -13z"/>
<path d="M95 5460 c-4 -6 -4 -14 -1 -19 8 -12 97 -31 144 -31 34 1 36 2 18 15
-10 8 -39 17 -65 21 -25 4 -56 10 -68 15 -13 5 -25 4 -28 -1z"/>
<path d="M654 5270 c0 -85 2 -120 3 -77 2 42 2 112 0 155 -1 42 -3 7 -3 -78z"/>
<path d="M107 5403 c-2 -4 -5 -25 -5 -45 -1 -33 2 -38 21 -38 33 0 45 17 38
53 -5 22 -13 33 -28 35 -12 2 -23 0 -26 -5z"/>
<path d="M1787 5340 c7 -25 26 -35 49 -26 13 5 13 8 2 20 -8 7 -23 16 -35 20
-18 6 -20 4 -16 -14z"/>
<path d="M1890 5315 c0 -8 9 -15 20 -15 24 0 27 15 4 24 -22 9 -24 8 -24 -9z"/>
<path d="M101 5276 c7 -8 43 -17 80 -20 14 -1 30 -6 36 -9 6 -4 19 -4 29 0 15
6 15 7 -4 14 -28 11 -149 23 -141 15z"/>
<path d="M1863 5257 c20 -6 37 -17 37 -24 0 -9 7 -12 18 -9 9 3 32 2 50 -3 20
-6 32 -6 32 0 0 5 -20 14 -45 21 -25 7 -45 16 -45 20 0 4 -19 7 -42 7 l-43 -2
38 -10z"/>
<path d="M802 5098 c-2 -44 -4 -48 -26 -48 -14 0 -31 7 -40 15 -21 21 -28 19
-24 -7 2 -19 8 -22 35 -20 24 3 34 -2 43 -17 10 -20 11 -20 30 -1 24 24 25 30
6 30 -11 0 -16 14 -19 48 l-3 47 -2 -47z"/>
<path d="M651 5094 c0 -11 3 -14 6 -6 3 7 2 16 -1 19 -3 4 -6 -2 -5 -13z"/>
<path d="M610 5054 c0 -8 10 -14 25 -14 33 0 33 25 0 26 -15 1 -25 -3 -25 -12z"/>
<path d="M857 5040 c-3 -13 0 -20 9 -20 15 0 19 26 5 34 -5 3 -11 -3 -14 -14z"/>
<path d="M652 4783 c2 -245 6 -223 10 55 2 94 0 172 -4 172 -5 0 -7 -102 -6
-227z"/>
<path d="M863 4955 c0 -33 2 -45 4 -27 2 18 2 45 0 60 -2 15 -4 0 -4 -33z"/>
<path d="M572 4950 c0 -19 2 -27 5 -17 2 9 2 25 0 35 -3 9 -5 1 -5 -18z"/>
<path d="M802 4945 c0 -16 2 -22 5 -12 2 9 2 23 0 30 -3 6 -5 -1 -5 -18z"/>
<path d="M1743 4935 c-7 -21 11 -39 31 -32 22 8 20 20 -4 35 -17 10 -21 10
-27 -3z"/>
<path d="M1612 4860 c0 -14 2 -19 5 -12 2 6 2 18 0 25 -3 6 -5 1 -5 -13z"/>
<path d="M581 4668 c-1 -62 -4 -78 -16 -78 -18 0 -20 -16 -4 -26 8 -4 7 -9 -2
-15 -12 -7 -12 -12 0 -31 10 -16 10 -23 2 -26 -15 -5 -14 -29 2 -35 15 -6 24
-187 10 -187 -4 0 -9 -20 -10 -45 -1 -25 2 -45 6 -45 5 0 9 -31 10 -69 2 -64
7 -110 13 -117 4 -3 -2 694 -6 726 -2 14 -4 -10 -5 -52z"/>
<path d="M651 4534 c0 -11 3 -14 6 -6 3 7 2 16 -1 19 -3 4 -6 -2 -5 -13z"/>
<path d="M662 4290 c-1 -124 -1 -230 -2 -237 0 -6 -8 -13 -17 -15 -15 -3 -14
-6 6 -17 19 -11 25 -11 32 0 4 7 5 18 1 24 -4 5 -10 114 -13 240 l-5 230 -2
-225z"/>
<path d="M1830 4410 c0 -5 18 -10 40 -10 22 0 40 -5 40 -11 0 -5 -6 -7 -12 -3
-9 5 -9 3 1 -9 7 -9 18 -14 24 -10 6 3 27 7 46 7 41 1 52 29 14 34 -13 2 -23
-1 -23 -6 0 -5 -9 -12 -20 -15 -15 -4 -20 0 -20 14 0 16 -7 19 -45 19 -25 0
-45 -4 -45 -10z"/>
<path d="M1866 4383 c-4 -5 -12 -8 -17 -8 -19 0 -13 -18 8 -21 16 -3 21 1 20
16 -1 23 -1 22 -11 13z"/>
<path d="M1911 4318 c0 -13 3 -17 6 -10 3 8 26 12 64 12 33 0 59 4 59 10 0 6
-28 10 -65 10 -61 0 -65 -1 -64 -22z"/>
<path d="M1837 4324 c-10 -11 5 -34 22 -33 10 0 11 2 4 6 -7 2 -13 9 -13 14 0
6 5 7 10 4 6 -3 10 -1 10 4 0 12 -23 15 -33 5z"/>
<path d="M1925 4250 c3 -5 22 -10 41 -10 33 0 34 -1 34 -39 0 -22 -5 -43 -10
-46 -7 -4 -9 2 -4 19 7 27 3 29 -33 20 -17 -5 -23 -14 -23 -35 0 -27 2 -29 42
-26 l41 2 1 63 1 62 -48 0 c-30 0 -46 -4 -42 -10z m42 -85 c0 -8 -4 -15 -9
-15 -4 0 -8 7 -8 15 0 8 4 15 8 15 5 0 9 -7 9 -15z"/>
<path d="M1461 4138 c-1 -15 4 -30 9 -33 6 -3 10 -1 10 6 0 7 6 5 13 -6 8 -10
19 -15 25 -11 8 5 9 11 2 19 -6 7 -17 21 -25 32 l-14 20 -1 -20 -1 -20 -9 20
c-8 18 -9 17 -9 -7z"/>
<path d="M1245 4130 c-3 -6 -4 -18 0 -29 5 -17 -11 -19 -252 -35 -142 -10
-265 -21 -273 -24 -32 -12 40 -12 205 2 110 8 172 10 176 4 4 -6 9 -6 13 1 4
6 24 11 44 12 20 0 69 6 107 13 59 10 66 13 43 19 -19 5 -28 14 -28 27 0 21
-24 28 -35 10z"/>
<path d="M1953 4113 c-18 -2 -33 -9 -33 -14 0 -13 110 -7 110 6 1 11 -29 14
-77 8z"/>
<path d="M1550 4061 c0 -5 -16 -8 -35 -7 -34 3 -43 -6 -27 -30 7 -12 73 -24
69 -13 -1 3 4 13 11 22 8 9 11 21 7 27 -8 12 -25 13 -25 1z"/>
<path d="M1385 4040 c-4 -6 -12 -10 -18 -9 -28 3 -39 -2 -34 -15 4 -10 0 -14
-14 -13 -10 1 -19 4 -19 8 0 10 -57 22 -68 15 -5 -3 -7 -17 -5 -31 l5 -25 32
22 c26 19 29 19 16 3 -14 -17 -13 -18 3 -12 10 4 32 7 48 7 23 0 27 3 22 18
-7 16 -6 16 11 0 9 -10 21 -18 26 -18 15 0 21 18 8 23 -10 4 -10 6 0 6 6 1 12
8 12 16 0 17 -16 20 -25 5z"/>
<path d="M1126 4005 c-3 -10 -2 -23 4 -29 15 -15 22 -2 12 24 -8 21 -9 22 -16
5z"/>
<path d="M784 3978 c1 -19 7 -23 41 -25 55 -3 82 4 82 22 0 21 -17 19 -17 -2
-1 -16 -2 -16 -13 -3 -7 9 -24 14 -44 12 -19 -2 -33 1 -33 7 0 6 -4 11 -9 11
-4 0 -8 -10 -7 -22z"/>
<path d="M997 3973 c-7 -36 1 -43 19 -19 10 14 14 16 14 5 0 -12 2 -12 11 1 8
11 12 12 16 3 9 -23 20 -14 15 12 -5 29 -6 29 -34 14 -15 -8 -19 -8 -14 0 4 6
1 11 -7 11 -8 0 -17 -12 -20 -27z"/>
<path d="M566 3944 c-18 -18 -21 -40 -6 -49 15 -9 42 15 36 32 -3 7 -2 13 3
13 5 0 12 -12 16 -27 l7 -28 10 28 c12 32 12 32 -24 41 -18 4 -32 1 -42 -10z"/>
<path d="M654 3935 c3 -8 1 -15 -4 -15 -6 0 -10 -8 -10 -17 0 -14 2 -15 9 -5
4 8 12 13 17 13 8 -1 9 4 6 29 -1 6 -7 10 -13 10 -6 0 -9 -7 -5 -15z"/>
<path d="M1476 3931 c-4 -5 0 -12 6 -14 10 -4 10 -6 1 -6 -7 -1 -13 -6 -13
-12 0 -6 15 -9 36 -7 27 2 39 9 45 26 8 20 6 22 -31 22 -21 0 -41 -4 -44 -9z"/>
<path d="M826 3922 c-10 -9 15 -43 27 -35 6 4 21 7 32 7 23 1 33 18 14 25 -7
2 -9 -1 -5 -8 4 -6 2 -11 -3 -11 -6 0 -11 6 -11 14 0 13 -43 20 -54 8z"/>
<path d="M1404 3923 c-24 -5 -39 -39 -20 -46 17 -7 66 4 66 13 0 15 -12 40
-19 39 -3 -1 -16 -4 -27 -6z"/>
<path d="M1304 3910 c-10 -4 -31 -5 -46 -4 -24 3 -28 0 -28 -22 0 -24 3 -26
32 -20 18 3 36 12 40 19 6 9 8 9 8 0 0 -7 11 -13 25 -13 20 0 25 5 25 24 0 25
-16 30 -56 16z m-24 -20 c0 -5 -5 -10 -11 -10 -5 0 -7 5 -4 10 3 6 8 10 11 10
2 0 4 -4 4 -10z"/>
<path d="M1519 3835 c-3 -2 -38 -7 -79 -11 -84 -7 -90 -9 -90 -30 0 -13 9 -14
47 -9 26 3 50 11 54 17 4 7 9 7 13 0 5 -9 52 -7 84 3 19 7 14 35 -6 35 -10 0
-21 -2 -23 -5z"/>
<path d="M916 3803 c-3 -3 -6 -17 -6 -29 0 -19 5 -23 29 -22 17 1 32 8 35 17
3 9 9 22 12 29 3 7 -1 12 -10 12 -9 0 -16 -5 -16 -10 0 -7 -6 -7 -19 -1 -10 6
-21 7 -25 4z"/>
<path d="M1258 3803 c-19 -3 -28 -10 -28 -23 0 -16 6 -19 33 -16 44 4 67 15
67 32 0 14 -16 15 -72 7z"/>
<path d="M792 3781 c-11 -12 -16 -13 -20 -3 -7 21 -22 13 -22 -12 0 -13 6 -26
14 -29 22 -9 54 3 59 22 4 14 5 14 6 -1 0 -10 5 -18 11 -18 5 0 14 8 19 18 6
9 11 11 11 5 0 -23 20 -13 20 10 0 19 -5 22 -41 23 -25 0 -48 -6 -57 -15z"/>
<path d="M1473 3737 c-3 -5 1 -13 8 -18 12 -7 12 -9 0 -9 -8 0 -19 7 -25 15
-10 13 -19 13 -70 1 -33 -8 -65 -12 -72 -9 -15 6 -26 -11 -19 -30 4 -8 16 -13
28 -11 12 2 36 5 52 7 17 3 53 8 80 12 75 10 85 14 85 36 0 15 -6 19 -31 17
-17 -1 -33 -6 -36 -11z"/>
<path d="M1744 3738 c1 -7 11 -15 21 -16 11 -3 15 0 10 7 -3 6 -10 9 -15 6 -4
-3 -11 0 -13 5 -3 6 -4 5 -3 -2z"/>
<path d="M1815 3740 c-3 -5 -1 -10 4 -10 6 0 11 5 11 10 0 6 -2 10 -4 10 -3 0
-8 -4 -11 -10z"/>
<path d="M1815 3710 c3 -5 8 -10 11 -10 2 0 4 5 4 10 0 6 -5 10 -11 10 -5 0
-7 -4 -4 -10z"/>
<path d="M1237 3703 c-10 -10 -8 -43 2 -43 24 0 41 14 41 34 0 17 -2 18 -10 6
-8 -12 -12 -12 -18 -2 -5 7 -11 9 -15 5z"/>
</g>
</svg>
