<svg width="21" height="18" viewBox="0 0 21 18" fill="none" xmlns="http://www.w3.org/2000/svg">
<path d="M10.3735 5.94739V9.42108L13.4668 12.0263L10.3735 5.94739ZM19.6533 9.42108C19.6533 10.4475 19.4133 11.4638 18.947 12.412C18.4806 13.3603 17.7971 14.2219 16.9353 14.9477C16.0736 15.6734 15.0506 16.2491 13.9248 16.6419C12.7989 17.0347 11.5922 17.2369 10.3735 17.2369C9.1549 17.2369 7.9482 17.0347 6.82232 16.6419C5.69644 16.2491 4.67345 15.6734 3.81174 14.9477C2.95003 14.2219 2.26649 13.3603 1.80013 12.412C1.33378 11.4638 1.09375 10.4475 1.09375 9.42108C1.09375 7.3482 2.07144 5.36022 3.81174 3.89448C5.55204 2.42873 7.91239 1.60529 10.3735 1.60529C12.8347 1.60529 15.195 2.42873 16.9353 3.89448C18.6756 5.36022 19.6533 7.3482 19.6533 9.42108Z" stroke="#102D4C" stroke-width="1.5" stroke-linecap="round" stroke-linejoin="round"/>
</svg>
