<svg width="25" height="25" viewBox="0 0 25 25" fill="none" xmlns="http://www.w3.org/2000/svg">
<path d="M23.2813 13C23.5574 13 23.7813 12.7761 23.7813 12.5C23.7813 12.2239 23.5574 12 23.2813 12V13ZM23.5 12.5C23.5 18.5751 18.5751 23.5 12.5 23.5V24.5C19.1274 24.5 24.5 19.1274 24.5 12.5H23.5ZM12.5 23.5C6.42487 23.5 1.5 18.5751 1.5 12.5H0.5C0.5 19.1274 5.87258 24.5 12.5 24.5V23.5ZM1.5 12.5C1.5 6.42487 6.42487 1.5 12.5 1.5V0.5C5.87258 0.5 0.5 5.87258 0.5 12.5H1.5ZM12.5 1.5C18.5751 1.5 23.5 6.42487 23.5 12.5H24.5C24.5 5.87258 19.1274 0.5 12.5 0.5V1.5ZM12.5 23.5C11.9708 23.5 11.4272 23.2569 10.8891 22.7368C10.3487 22.2143 9.83919 21.4342 9.40045 20.4313C8.52361 18.4271 7.96875 15.6234 7.96875 12.5H6.96875C6.96875 15.7279 7.54018 18.6742 8.48429 20.8321C8.95602 21.9104 9.53064 22.8144 10.1941 23.4557C10.8599 24.0995 11.6399 24.5 12.5 24.5V23.5ZM7.96875 12.5C7.96875 9.37665 8.52361 6.57289 9.40045 4.56868C9.83919 3.56584 10.3487 2.78567 10.8891 2.2632C11.4272 1.74306 11.9708 1.5 12.5 1.5V0.5C11.6399 0.5 10.8599 0.900533 10.1941 1.54425C9.53064 2.18565 8.95602 3.08962 8.48429 4.16786C7.54018 6.32584 6.96875 9.27208 6.96875 12.5H7.96875ZM12.5 24.5C13.3601 24.5 14.1401 24.0995 14.8059 23.4557C15.4694 22.8144 16.044 21.9104 16.5157 20.8321C17.4598 18.6742 18.0312 15.7279 18.0312 12.5H17.0312C17.0312 15.6234 16.4764 18.4271 15.5996 20.4313C15.1608 21.4342 14.6513 22.2143 14.1109 22.7368C13.5728 23.2569 13.0292 23.5 12.5 23.5V24.5ZM18.0312 12.5C18.0312 9.27208 17.4598 6.32584 16.5157 4.16786C16.044 3.08962 15.4694 2.18565 14.8059 1.54425C14.1401 0.900533 13.3601 0.5 12.5 0.5V1.5C13.0292 1.5 13.5728 1.74306 14.1109 2.2632C14.6513 2.78567 15.1608 3.56584 15.5996 4.56868C16.4764 6.57289 17.0312 9.37665 17.0312 12.5H18.0312ZM1 13L23.2813 13V12L1 12L1 13Z" fill="#D9D9D9"/>
</svg>
