<svg width="21" height="21" viewBox="0 0 21 21" fill="none" xmlns="http://www.w3.org/2000/svg">
<path d="M21 17.4999V5.24959C21 4.55338 20.7234 3.88569 20.2312 3.39339C19.7389 2.9011 19.0712 2.62453 18.375 2.62453H17.5C17.4999 2.21827 17.4055 1.81758 17.2243 1.454C17.0431 1.09041 16.7799 0.773849 16.4556 0.52923C16.1313 0.284611 15.7546 0.118611 15.3552 0.0442953C14.9558 -0.0300201 14.5446 -0.0106225 14.154 0.100962L11.529 0.851731C11.147 0.960992 10.795 1.15613 10.5 1.42225C10.205 1.15613 9.853 0.960992 9.471 0.851731L6.846 0.100962C6.45538 -0.0106225 6.0442 -0.0300201 5.64481 0.0442953C5.24542 0.118611 4.86873 0.284611 4.54439 0.52923C4.22005 0.773849 3.95691 1.09041 3.77568 1.454C3.59445 1.81758 3.50008 2.21827 3.5 2.62453H2.625C1.92881 2.62453 1.26113 2.9011 0.768845 3.39339C0.276562 3.88569 0 4.55338 0 5.24959L0 17.4999H9.625V19.25H6.125V21H14.875V19.25H11.375V17.4999H21ZM11.375 3.3753C11.3751 3.18525 11.437 3.00041 11.5515 2.8487C11.6659 2.69699 11.8267 2.58666 12.0094 2.5344L14.6344 1.7845C14.7126 1.76186 14.7936 1.75008 14.875 1.7495C15.1071 1.7495 15.3296 1.84169 15.4937 2.00579C15.6578 2.16989 15.75 2.39246 15.75 2.62453V8.08992L11.375 9.33945V3.3753ZM5.25 2.62453C5.2502 2.48917 5.28179 2.35571 5.34229 2.23464C5.40279 2.11356 5.49056 2.00817 5.59868 1.92676C5.70681 1.84535 5.83235 1.79013 5.96543 1.76544C6.09851 1.74076 6.2355 1.74728 6.36562 1.7845L8.99062 2.5344C9.17333 2.58666 9.33406 2.69699 9.44851 2.8487C9.56297 3.00041 9.62492 3.18525 9.625 3.3753V9.33945L5.25 8.08992V2.62453ZM1.75 5.24959C1.75 5.01752 1.84219 4.79496 2.00628 4.63086C2.17038 4.46676 2.39294 4.37457 2.625 4.37457H3.5V9.40945L10.5 11.4098L17.5 9.40945V4.37457H18.375C18.6071 4.37457 18.8296 4.46676 18.9937 4.63086C19.1578 4.79496 19.25 5.01752 19.25 5.24959V15.7499H1.75V5.24959Z" fill="#D9D9D9"/>
</svg>
