<svg width="23" height="23" viewBox="0 0 23 23" fill="none" xmlns="http://www.w3.org/2000/svg">
<path d="M4.28125 19.375C4.78566 18.8101 7.14802 16.2104 7.84032 16.2104H15.1601C16.1633 16.2104 18.2112 18.3654 18.7188 19.125M22 11.5C22 17.299 17.299 22 11.5 22C5.70101 22 1 17.299 1 11.5C1 5.70101 5.70101 1 11.5 1C17.299 1 22 5.70101 22 11.5ZM15.2612 7.9212C15.2612 5.91799 13.5701 4.28125 11.5003 4.28125C9.43053 4.28125 7.7394 5.91799 7.7394 7.9212C7.7394 9.92442 9.43053 11.5612 11.5003 11.5612C13.5701 11.5612 15.2612 9.92442 15.2612 7.9212Z" stroke="#D9D9D9"/>
</svg>
