<svg width="51" height="51" viewBox="0 0 51 51" fill="none" xmlns="http://www.w3.org/2000/svg">
<path d="M8.65625 43.875C9.8332 42.5569 15.3454 36.491 16.9607 36.491H34.0403C36.3811 36.491 41.1595 41.5192 42.3438 43.2916M50 25.5C50 39.031 39.031 50 25.5 50C11.969 50 1 39.031 1 25.5C1 11.969 11.969 1 25.5 1C39.031 1 50 11.969 50 25.5ZM34.2762 17.1495C34.2762 12.4753 30.3303 8.65625 25.5007 8.65625C20.6712 8.65625 16.7253 12.4753 16.7253 17.1495C16.7253 21.8236 20.6712 25.6427 25.5007 25.6427C30.3302 25.6427 34.2762 21.8236 34.2762 17.1495Z" stroke="#D9D9D9" stroke-width="2"/>
</svg>
