<svg width="25" height="21" viewBox="0 0 25 21" fill="none" xmlns="http://www.w3.org/2000/svg">
<g opacity="0.8">
<path d="M15.2103 9.69855L11.9139 7.84708C11.7585 7.75974 11.5778 7.70961 11.3911 7.70205C11.2045 7.6945 11.019 7.72979 10.8543 7.80417C10.6896 7.87855 10.5521 7.98922 10.4563 8.12434C10.3605 8.25947 10.3101 8.41397 10.3105 8.57134V12.2734C10.3105 12.4306 10.3612 12.5849 10.4571 12.7198C10.553 12.8547 10.6906 12.9651 10.8552 13.0393C11.0198 13.1134 11.2052 13.1486 11.3917 13.1409C11.5781 13.1333 11.7586 13.0832 11.9139 12.9959L15.2103 11.1445C15.3515 11.0652 15.4673 10.9577 15.5474 10.8317C15.6274 10.7056 15.6693 10.5649 15.6693 10.4219C15.6693 10.279 15.6274 10.1382 15.5474 10.0122C15.4673 9.88617 15.3515 9.77872 15.2103 9.69942V9.69855Z" stroke="#102D4C" stroke-width="1.5" stroke-linecap="round" stroke-linejoin="round"/>
<path d="M21.6533 10.4211C21.6533 11.4475 21.4133 12.4638 20.947 13.412C20.4806 14.3603 19.7971 15.2219 18.9353 15.9477C18.0736 16.6734 17.0506 17.2491 15.9248 17.6419C14.7989 18.0347 13.5922 18.2369 12.3735 18.2369C11.1549 18.2369 9.9482 18.0347 8.82232 17.6419C7.69644 17.2491 6.67345 16.6734 5.81174 15.9477C4.95003 15.2219 4.26649 14.3603 3.80013 13.412C3.33378 12.4638 3.09375 11.4475 3.09375 10.4211C3.09375 8.3482 4.07144 6.36022 5.81174 4.89448C7.55204 3.42873 9.91239 2.60529 12.3735 2.60529C14.8347 2.60529 17.195 3.42873 18.9353 4.89448C20.6756 6.36022 21.6533 8.3482 21.6533 10.4211Z" stroke="#102D4C" stroke-width="1.5" stroke-linecap="round" stroke-linejoin="round"/>
</g>
</svg>
