<svg width="21" height="19" viewBox="0 0 21 19" fill="none" xmlns="http://www.w3.org/2000/svg">
<g opacity="0.8">
<path d="M10.3113 3.88801C10.7731 3.44707 11.3833 3.13502 12.0609 2.99339C12.7384 2.85175 13.4511 2.88724 14.1041 3.09514C14.7571 3.30304 15.3194 3.67349 15.7163 4.15719C16.1132 4.64089 16.3258 5.21492 16.3258 5.80288C16.3258 6.39084 16.1132 6.96486 15.7163 7.44857C15.3194 7.93227 14.7571 8.30272 14.1041 8.51062C13.4511 8.71852 12.7384 8.75401 12.0609 8.61237C11.3833 8.47074 10.7731 8.15869 10.3113 7.71775V3.88801ZM12.889 15.9345H2.57812V15.2108C2.57813 14.0592 3.12129 12.9547 4.08812 12.1404C5.05495 11.3261 6.36626 10.8687 7.73357 10.8687C9.10087 10.8687 10.4122 11.3261 11.379 12.1404C12.3458 12.9547 12.889 14.0592 12.889 15.2108V15.9345ZM12.889 15.9345H18.0444V15.2108C18.0446 14.4485 17.8065 13.6997 17.354 13.0395C16.9016 12.3793 16.2508 11.8311 15.467 11.4499C14.6833 11.0688 13.7942 10.8681 12.8892 10.8681C11.9842 10.868 11.0951 11.0687 10.3113 11.4498L12.889 15.9345ZM11.1705 5.80288C11.1705 6.57061 10.8084 7.3069 10.1639 7.84977C9.51931 8.39264 8.6451 8.69762 7.73357 8.69762C6.82203 8.69762 5.94782 8.39264 5.30327 7.84977C4.65871 7.3069 4.29661 6.57061 4.29661 5.80288C4.29661 5.03515 4.65871 4.29886 5.30327 3.75599C5.94782 3.21312 6.82203 2.90814 7.73357 2.90814C8.6451 2.90814 9.51931 3.21312 10.1639 3.75599C10.8084 4.29886 11.1705 5.03515 11.1705 5.80288V5.80288Z" stroke="#102D4C" stroke-width="1.5" stroke-linecap="round" stroke-linejoin="round"/>
</g>
</svg>
